  0
SECTION
  2
HEADER
  9
$ACADVER
  1
AC1009
  9
$INSBASE
 10
0.0
 20
0.0
 30
0.0
  9
$EXTMIN
 10
5.0
 20
9.4467770000000009
 30
0.0
  9
$EXTMAX
 10
96.806369000000004
 20
95.000000000000028
 30
0.001526
  9
$LIMMIN
 10
0.0
 20
0.0
  9
$LIMMAX
 10
100.0
 20
100.0
  9
$ORTHOMODE
 70
     1
  9
$REGENMODE
 70
     1
  9
$FILLMODE
 70
     1
  9
$QTEXTMODE
 70
     0
  9
$MIRRTEXT
 70
     1
  9
$DRAGMODE
 70
     2
  9
$LTSCALE
 40
0.2
  9
$OSMODE
 70
    37
  9
$ATTMODE
 70
     1
  9
$TEXTSIZE
 40
2.0
  9
$TRACEWID
 40
1.0
  9
$TEXTSTYLE
  7
STANDARD
  9
$CLAYER
  8
0
  9
$CELTYPE
  6
BYLAYER
  9
$CECOLOR
 62
   256
  9
$DIMSCALE
 40
1.0
  9
$DIMASZ
 40
1.0
  9
$DIMEXO
 40
0.5
  9
$DIMDLI
 40
0.5
  9
$DIMRND
 40
0.0
  9
$DIMDLE
 40
0.0
  9
$DIMEXE
 40
0.5
  9
$DIMTP
 40
0.0
  9
$DIMTM
 40
0.0
  9
$DIMTXT
 40
1.25
  9
$DIMCEN
 40
0.09
  9
$DIMTSZ
 40
0.0
  9
$DIMTOL
 70
     0
  9
$DIMLIM
 70
     0
  9
$DIMTIH
 70
     0
  9
$DIMTOH
 70
     0
  9
$DIMSE1
 70
     0
  9
$DIMSE2
 70
     0
  9
$DIMTAD
 70
     3
  9
$DIMZIN
 70
     8
  9
$DIMBLK
  1

  9
$DIMASO
 70
     1
  9
$DIMSHO
 70
     1
  9
$DIMPOST
  1

  9
$DIMAPOST
  1

  9
$DIMALT
 70
     0
  9
$DIMALTD
 70
     4
  9
$DIMALTF
 40
0.0394
  9
$DIMLFAC
 40
1.0
  9
$DIMTOFL
 70
     1
  9
$DIMTVP
 40
0.0
  9
$DIMTIX
 70
     0
  9
$DIMSOXD
 70
     0
  9
$DIMSAH
 70
     0
  9
$DIMBLK1
  1

  9
$DIMBLK2
  1

  9
$DIMSTYLE
  2
STANDARD
  9
$DIMCLRD
 70
   256
  9
$DIMCLRE
 70
   256
  9
$DIMCLRT
 70
     0
  9
$DIMTFAC
 40
0.8
  9
$DIMGAP
 40
0.5
  9
$LUNITS
 70
     2
  9
$LUPREC
 70
     4
  9
$SKETCHINC
 40
1.0
  9
$FILLETRAD
 40
10.0
  9
$AUNITS
 70
     0
  9
$AUPREC
 70
     0
  9
$MENU
  1
acad
  9
$ELEVATION
 40
0.0
  9
$PELEVATION
 40
0.0
  9
$THICKNESS
 40
0.0
  9
$LIMCHECK
 70
     0
  9
$BLIPMODE
 70
     0
  9
$CHAMFERA
 40
10.0
  9
$CHAMFERB
 40
10.0
  9
$SKPOLY
 70
     0
  9
$TDCREATE
 40
2452237.8300900459
  9
$TDUPDATE
 40
2453090.4259452661
  9
$TDINDWG
 40
0.0397412963
  9
$TDUSRTIMER
 40
0.0397411111
  9
$USRTIMER
 70
     1
  9
$ANGBASE
 50
0.0
  9
$ANGDIR
 70
     0
  9
$PDMODE
 70
     0
  9
$PDSIZE
 40
0.0
  9
$PLINEWID
 40
0.0
  9
$COORDS
 70
     1
  9
$SPLFRAME
 70
     0
  9
$SPLINETYPE
 70
     6
  9
$SPLINESEGS
 70
     8
  9
$ATTDIA
 70
     0
  9
$ATTREQ
 70
     1
  9
$HANDLING
 70
-16383
  9
$HANDSEED
  5
1119
  9
$SURFTAB1
 70
     6
  9
$SURFTAB2
 70
     6
  9
$SURFTYPE
 70
     6
  9
$SURFU
 70
     6
  9
$SURFV
 70
     6
  9
$UCSNAME
  2

  9
$UCSORG
 10
0.0
 20
0.0
 30
0.0
  9
$UCSXDIR
 10
1.0
 20
0.0
 30
0.0
  9
$UCSYDIR
 10
0.0
 20
1.0
 30
0.0
  9
$PUCSNAME
  2

  9
$PUCSORG
 10
0.0
 20
0.0
 30
0.0
  9
$PUCSXDIR
 10
1.0
 20
0.0
 30
0.0
  9
$PUCSYDIR
 10
0.0
 20
1.0
 30
0.0
  9
$USERI1
 70
     0
  9
$USERI2
 70
     0
  9
$USERI3
 70
     0
  9
$USERI4
 70
     0
  9
$USERI5
 70
     0
  9
$USERR1
 40
0.0
  9
$USERR2
 40
0.0
  9
$USERR3
 40
0.0
  9
$USERR4
 40
0.0
  9
$USERR5
 40
0.0
  9
$WORLDVIEW
 70
     1
  9
$SHADEDGE
 70
     3
  9
$SHADEDIF
 70
    70
  9
$TILEMODE
 70
     1
  9
$MAXACTVP
 70
    16
  9
$PLIMCHECK
 70
     0
  9
$PEXTMIN
 10
1.0000000000000000E+020
 20
1.0000000000000000E+020
 30
1.0000000000000000E+020
  9
$PEXTMAX
 10
-1.0000000000000000E+020
 20
-1.0000000000000000E+020
 30
-1.0000000000000000E+020
  9
$PLIMMIN
 10
0.0
 20
0.0
  9
$PLIMMAX
 10
420.0
 20
297.0
  9
$UNITMODE
 70
     0
  9
$VISRETAIN
 70
     1
  9
$PLINEGEN
 70
     0
  9
$PSLTSCALE
 70
     1
  0
ENDSEC
  0
SECTION
  2
TABLES
  0
TABLE
  2
VPORT
 70
     2
  0
VPORT
  2
*ACTIVE
 70
     0
 10
0.0
 20
0.0
 11
1.0
 21
1.0
 12
50.90408348583626
 22
57.577517748107937
 13
0.0
 23
0.0
 14
10.0
 24
10.0
 15
10.0
 25
10.0
 16
0.0
 26
0.0
 36
1.0
 17
0.0
 27
0.0
 37
0.0
 40
96.997927576869955
 41
1.5205479452054791
 42
50.0
 43
0.0
 44
0.0
 50
0.0
 51
0.0
 71
     0
 72
   100
 73
     1
 74
     1
 75
     0
 76
     0
 77
     0
 78
     0
  0
ENDTAB
  0
TABLE
  2
LTYPE
 70
     3
  0
LTYPE
  2
CONTINUOUS
 70
     0
  3
Solid line
 72
    65
 73
     0
 40
0.0
  0
LTYPE
  2
CENTER
 70
     0
  3
Center ____ _ ____ _ ____ _ ____ _ ____ _ ____
 72
    65
 73
     4
 40
2.0
 49
1.25
 49
-0.25
 49
0.25
 49
-0.25
  0
LTYPE
  2
CENTERX4
 70
     0
  3
________  __  ________  __  ________  __  _____
 72
    65
 73
     4
 40
10.5
 49
6.0
 49
-1.5
 49
1.5
 49
-1.5
  0
ENDTAB
  0
TABLE
  2
LAYER
 70
     8
  0
LAYER
  2
0
 70
     0
 62
     7
  6
CONTINUOUS
  0
LAYER
  2
DEFPOINTS
 70
     0
 62
     7
  6
CONTINUOUS
  0
LAYER
  2
GAIKEI
 70
     0
 62
     7
  6
CONTINUOUS
  0
LAYER
  2
MOUNT
 70
     0
 62
     7
  6
CONTINUOUS
  0
LAYER
  2
DIM
 70
     0
 62
     4
  6
CONTINUOUS
  0
LAYER
  2
CENTER
 70
     0
 62
     2
  6
CENTERX4
  0
LAYER
  2
FILE
 70
     0
 62
     7
  6
CONTINUOUS
  0
LAYER
  2
MOUNT2
 70
     0
 62
     3
  6
CONTINUOUS
  0
ENDTAB
  0
TABLE
  2
STYLE
 70
     1
  0
STYLE
  2
STANDARD
 70
     0
 40
0.0
 41
0.72
 50
0.0
 71
     0
 42
2.0
  3
txt.shx
  4
extfont.shx
  0
ENDTAB
  0
TABLE
  2
VIEW
 70
     0
  0
ENDTAB
  0
TABLE
  2
UCS
 70
     0
  0
ENDTAB
  0
TABLE
  2
APPID
 70
     1
  0
APPID
  2
ACAD
 70
     0
  0
ENDTAB
  0
TABLE
  2
DIMSTYLE
 70
     1
  0
DIMSTYLE
  2
STANDARD
 70
     0
  3

  4

  5

  6

  7

 40
1.0
 41
1.0
 42
0.5
 43
0.5
 44
0.5
 45
0.0
 46
0.0
 47
0.0
 48
0.0
140
1.25
141
0.09
142
0.0
143
0.0394
144
1.0
145
0.0
146
0.8
147
0.5
 71
     0
 72
     0
 73
     0
 74
     0
 75
     0
 76
     0
 77
     3
 78
     8
170
     0
171
     4
172
     1
173
     0
174
     0
175
     0
176
   256
177
   256
178
     0
  0
ENDTAB
  0
ENDSEC
  0
SECTION
  2
BLOCKS
  0
BLOCK
  8
0
  2
$MODEL_SPACE
 70
     0
 10
0.0
 20
0.0
 30
0.0
  3
$MODEL_SPACE
  1

  0
ENDBLK
  5
E42
  8
0
  0
BLOCK
 67
     1
  8
0
  2
$PAPER_SPACE
 70
     0
 10
0.0
 20
0.0
 30
0.0
  3
$PAPER_SPACE
  1

  0
ENDBLK
  5
E3E
 67
     1
  8
0
  0
BLOCK
  8
0
  2
*D2
 70
     1
 10
0.0
 20
0.0
 30
0.0
  3
*D2
  1

  0
LINE
  5
E59
  8
0
  6
BYBLOCK
 10
-7.5
 20
-10.5
 30
0.0
 11
-17.437383999999991
 21
-10.5
 31
0.0
  0
LINE
  5
E5A
  8
0
  6
BYBLOCK
 10
-7.5
 20
10.5
 30
0.0
 11
-17.437383999999991
 21
10.5
 31
0.0
  0
LINE
  5
E5B
  8
0
  6
BYBLOCK
 10
-16.937383999999991
 20
-9.5
 30
0.0
 11
-16.937383999999991
 21
9.5
 31
0.0
  0
SOLID
  5
E5C
  8
0
  6
BYBLOCK
 10
-17.104050999999998
 20
-9.5
 30
0.0
 11
-16.770717000000001
 21
-9.5
 31
0.0
 12
-16.937383999999991
 22
-10.5
 32
0.0
 13
-16.937383999999991
 23
-10.5
 33
0.0
  0
SOLID
  5
E5D
  8
0
  6
BYBLOCK
 10
-17.104050999999998
 20
9.5
 30
0.0
 11
-16.770717000000001
 21
9.5
 31
0.0
 12
-16.937383999999991
 22
10.5
 32
0.0
 13
-16.937383999999991
 23
10.5
 33
0.0
  0
TEXT
  5
E5E
  8
0
  6
BYBLOCK
 62
     0
 10
-17.437383999999991
 20
-0.6
 30
0.0
 40
1.25
  1
21
 50
90.0
 41
0.72
  0
POINT
  5
E5F
  8
DEFPOINTS
  6
BYBLOCK
 62
     0
 10
-7.0
 20
-10.5
 30
0.0
  0
POINT
  5
E60
  8
DEFPOINTS
  6
BYBLOCK
 62
     0
 10
-7.0
 20
10.5
 30
0.0
  0
POINT
  5
E61
  8
DEFPOINTS
  6
BYBLOCK
 62
     0
 10
-16.937383999999991
 20
10.5
 30
0.0
  0
ENDBLK
  5
E62
  8
0
  0
BLOCK
  8
0
  2
*D3
 70
     1
 10
0.0
 20
0.0
 30
0.0
  3
*D3
  1

  0
LINE
  5
E65
  8
0
  6
BYBLOCK
 10
62.570597999999997
 20
-7.25
 30
0.0
 11
62.570597999999997
 21
-16.674039
 31
0.0
  0
LINE
  5
E66
  8
0
  6
BYBLOCK
 10
57.820597999999983
 20
-7.25
 30
0.0
 11
57.820597999999983
 21
-16.674039
 31
0.0
  0
LINE
  5
E67
  8
0
  6
BYBLOCK
 10
61.570597999999983
 20
-16.174039
 30
0.0
 11
58.820597999999997
 21
-16.174039
 31
0.0
  0
SOLID
  5
E68
  8
0
  6
BYBLOCK
 10
61.570597999999983
 20
-16.007373000000001
 30
0.0
 11
61.570597999999983
 21
-16.340706000000001
 31
0.0
 12
62.570597999999997
 22
-16.174039
 32
0.0
 13
62.570597999999997
 23
-16.174039
 33
0.0
  0
SOLID
  5
E69
  8
0
  6
BYBLOCK
 10
58.820597999999997
 20
-16.007373000000001
 30
0.0
 11
58.820597999999997
 21
-16.340706000000001
 31
0.0
 12
57.820597999999983
 22
-16.174039
 32
0.0
 13
57.820597999999983
 23
-16.174039
 33
0.0
  0
TEXT
  5
E6A
  8
0
  6
BYBLOCK
 62
     0
 10
58.845597999999988
 20
-15.674039
 30
0.0
 40
1.25
  1
4.75
 41
0.72
  0
POINT
  5
E6B
  8
DEFPOINTS
  6
BYBLOCK
 62
     0
 10
62.570597999999997
 20
-6.75
 30
0.0
  0
POINT
  5
E6C
  8
DEFPOINTS
  6
BYBLOCK
 62
     0
 10
57.820597999999983
 20
-6.75
 30
0.0
  0
POINT
  5
E6D
  8
DEFPOINTS
  6
BYBLOCK
 62
     0
 10
57.820597999999983
 20
-16.174039
 30
0.0
  0
ENDBLK
  5
E6E
  8
0
  0
BLOCK
  8
0
  2
*D4
 70
     1
 10
0.0
 20
0.0
 30
0.0
  3
*D4
  1

  0
LINE
  5
E71
  8
0
  6
BYBLOCK
 10
-5.25
 20
-7.5
 30
0.0
 11
-15.392236999999991
 21
-7.5
 31
0.0
  0
LINE
  5
E72
  8
0
  6
BYBLOCK
 10
-5.25
 20
7.5
 30
0.0
 11
-15.392236999999991
 21
7.5
 31
0.0
  0
LINE
  5
E73
  8
0
  6
BYBLOCK
 10
-14.892237
 20
-6.5
 30
0.0
 11
-14.892237
 21
6.5
 31
0.0
  0
SOLID
  5
E74
  8
0
  6
BYBLOCK
 10
-15.058904
 20
-6.5
 30
0.0
 11
-14.725569999999999
 21
-6.5
 31
0.0
 12
-14.892237
 22
-7.5
 32
0.0
 13
-14.892237
 23
-7.5
 33
0.0
  0
SOLID
  5
E75
  8
0
  6
BYBLOCK
 10
-15.058904
 20
6.5
 30
0.0
 11
-14.725569999999999
 21
6.5
 31
0.0
 12
-14.892237
 22
7.5
 32
0.0
 13
-14.892237
 23
7.5
 33
0.0
  0
TEXT
  5
E76
  8
0
  6
BYBLOCK
 62
     0
 10
-15.392236999999991
 20
-0.6
 30
0.0
 40
1.25
  1
15
 50
90.0
 41
0.72
  0
POINT
  5
E77
  8
DEFPOINTS
  6
BYBLOCK
 62
     0
 10
-4.75
 20
-7.5
 30
0.0
  0
POINT
  5
E78
  8
DEFPOINTS
  6
BYBLOCK
 62
     0
 10
-4.75
 20
7.5
 30
0.0
  0
POINT
  5
E79
  8
DEFPOINTS
  6
BYBLOCK
 62
     0
 10
-14.892237
 20
7.5
 30
0.0
  0
ENDBLK
  5
E7A
  8
0
  0
BLOCK
  8
0
  2
*D5
 70
     1
 10
0.0
 20
0.0
 30
0.0
  3
*D5
  1

  0
LINE
  5
E7D
  8
0
  6
BYBLOCK
 10
47.902842999999983
 20
57.056550999999999
 30
0.0
 11
47.902842999999983
 21
52.945950000000011
 31
0.0
  0
LINE
  5
E7E
  8
0
  6
BYBLOCK
 10
49.90284299999999
 20
56.35655100000001
 30
0.0
 11
49.90284299999999
 21
52.945950000000011
 31
0.0
  0
LINE
  5
E7F
  8
0
  6
BYBLOCK
 10
46.902842999999997
 20
53.445950000000003
 30
0.0
 11
45.90284299999999
 21
53.445950000000003
 31
0.0
  0
LINE
  5
E80
  8
0
  6
BYBLOCK
 10
50.902842999999997
 20
53.445950000000003
 30
0.0
 11
51.902842999999997
 21
53.445950000000003
 31
0.0
  0
TEXT
  5
E81
  8
0
  6
BYBLOCK
 62
     0
 10
51.351590999999999
 20
53.785108999999999
 30
0.0
 40
1.25
  1
2
 41
0.72
  0
LINE
  5
E82
  8
0
  6
BYBLOCK
 10
47.902842999999983
 20
53.445950000000003
 30
0.0
 11
49.90284299999999
 21
53.445950000000003
 31
0.0
  0
LINE
  5
E83
  8
0
  6
BYBLOCK
 10
47.902842999999983
 20
53.445950000000003
 30
0.0
 11
49.90284299999999
 21
53.445950000000003
 31
0.0
  0
SOLID
  5
E84
  8
0
  6
BYBLOCK
 10
46.902842999999997
 20
53.612617
 30
0.0
 11
46.902842999999997
 21
53.279283999999997
 31
0.0
 12
47.902842999999983
 22
53.445950000000003
 32
0.0
 13
47.902842999999983
 23
53.445950000000003
 33
0.0
  0
SOLID
  5
E85
  8
0
  6
BYBLOCK
 10
50.902842999999997
 20
53.612617
 30
0.0
 11
50.902842999999997
 21
53.279283999999997
 31
0.0
 12
49.90284299999999
 22
53.445950000000003
 32
0.0
 13
49.90284299999999
 23
53.445950000000003
 33
0.0
  0
POINT
  5
E86
  8
DEFPOINTS
  6
BYBLOCK
 62
     0
 10
47.902842999999983
 20
57.556550999999999
 30
0.0
  0
POINT
  5
E87
  8
DEFPOINTS
  6
BYBLOCK
 62
     0
 10
49.90284299999999
 20
56.856551000000003
 30
0.0
  0
POINT
  5
E88
  8
DEFPOINTS
  6
BYBLOCK
 62
     0
 10
49.90284299999999
 20
53.445950000000003
 30
0.0
  0
ENDBLK
  5
E89
  8
0
  0
BLOCK
  8
0
  2
*D6
 70
     1
 10
0.0
 20
0.0
 30
0.0
  3
*D6
  1

  0
LINE
  5
E8C
  8
0
  6
BYBLOCK
 10
21.202072000000001
 20
-11.0
 30
0.0
 11
21.202072000000001
 21
-18.692819
 31
0.0
  0
LINE
  5
E8D
  8
0
  6
BYBLOCK
 10
35.20207199999998
 20
-10.0
 30
0.0
 11
35.20207199999998
 21
-18.692819
 31
0.0
  0
LINE
  5
E8E
  8
0
  6
BYBLOCK
 10
22.202072000000001
 20
-18.192819
 30
0.0
 11
34.20207199999998
 21
-18.192819
 31
0.0
  0
SOLID
  5
E8F
  8
0
  6
BYBLOCK
 10
22.202072000000001
 20
-18.026153000000001
 30
0.0
 11
22.202072000000001
 21
-18.35948599999999
 31
0.0
 12
21.202072000000001
 22
-18.192819
 32
0.0
 13
21.202072000000001
 23
-18.192819
 33
0.0
  0
SOLID
  5
E90
  8
0
  6
BYBLOCK
 10
34.20207199999998
 20
-18.026153000000001
 30
0.0
 11
34.20207199999998
 21
-18.35948599999999
 31
0.0
 12
35.20207199999998
 22
-18.192819
 32
0.0
 13
35.20207199999998
 23
-18.192819
 33
0.0
  0
TEXT
  5
E91
  8
0
  6
BYBLOCK
 62
     0
 10
27.602071999999989
 20
-17.692819
 30
0.0
 40
1.25
  1
14
 41
0.72
  0
POINT
  5
E92
  8
DEFPOINTS
  6
BYBLOCK
 62
     0
 10
21.202072000000001
 20
-10.5
 30
0.0
  0
POINT
  5
E93
  8
DEFPOINTS
  6
BYBLOCK
 62
     0
 10
35.20207199999998
 20
-9.5
 30
0.0
  0
POINT
  5
E94
  8
DEFPOINTS
  6
BYBLOCK
 62
     0
 10
35.20207199999998
 20
-18.192819
 30
0.0
  0
ENDBLK
  5
E95
  8
0
  0
BLOCK
  8
0
  2
*D7
 70
     1
 10
0.0
 20
0.0
 30
0.0
  3
*D7
  1

  0
LINE
  5
E98
  8
0
  6
BYBLOCK
 10
35.70207199999998
 20
9.5
 30
0.0
 11
51.692861000000001
 21
9.5
 31
0.0
  0
LINE
  5
E99
  8
0
  6
BYBLOCK
 10
35.70207199999998
 20
-9.5
 30
0.0
 11
51.692861000000001
 21
-9.5
 31
0.0
  0
LINE
  5
E9A
  8
0
  6
BYBLOCK
 10
51.192861000000001
 20
8.5
 30
0.0
 11
51.192861000000001
 21
-8.5
 31
0.0
  0
SOLID
  5
E9B
  8
0
  6
BYBLOCK
 10
51.026193999999997
 20
8.5
 30
0.0
 11
51.359527999999997
 21
8.5
 31
0.0
 12
51.192861000000001
 22
9.5
 32
0.0
 13
51.192861000000001
 23
9.5
 33
0.0
  0
SOLID
  5
E9C
  8
0
  6
BYBLOCK
 10
51.026193999999997
 20
-8.5
 30
0.0
 11
51.359527999999997
 21
-8.5
 31
0.0
 12
51.192861000000001
 22
-9.5
 32
0.0
 13
51.192861000000001
 23
-9.5
 33
0.0
  0
TEXT
  5
E9D
  8
0
  6
BYBLOCK
 62
     0
 10
50.692861000000001
 20
-0.6
 30
0.0
 40
1.25
  1
19
 50
90.0
 41
0.72
  0
POINT
  5
E9E
  8
DEFPOINTS
  6
BYBLOCK
 62
     0
 10
35.20207199999998
 20
9.5
 30
0.0
  0
POINT
  5
E9F
  8
DEFPOINTS
  6
BYBLOCK
 62
     0
 10
35.20207199999998
 20
-9.5
 30
0.0
  0
POINT
  5
EA0
  8
DEFPOINTS
  6
BYBLOCK
 62
     0
 10
51.192861000000001
 20
-9.5
 30
0.0
  0
ENDBLK
  5
EA1
  8
0
  0
BLOCK
  8
0
  2
*D8
 70
     1
 10
0.0
 20
0.0
 30
0.0
  3
*D8
  1

  0
LINE
  5
EA4
  8
0
  6
BYBLOCK
 10
71.869354999999999
 20
60.856551000000003
 30
0.0
 11
78.034216999999998
 21
60.856551000000003
 31
0.0
  0
LINE
  5
EA5
  8
0
  6
BYBLOCK
 10
72.824503000000007
 20
67.356550999999996
 30
0.0
 11
78.034216999999998
 21
67.356550999999996
 31
0.0
  0
LINE
  5
EA6
  8
0
  6
BYBLOCK
 10
77.534216999999998
 20
61.856551000000003
 30
0.0
 11
77.534216999999998
 21
66.356550999999996
 31
0.0
  0
SOLID
  5
EA7
  8
0
  6
BYBLOCK
 10
77.36754999999998
 20
61.856551000000003
 30
0.0
 11
77.700882999999976
 21
61.856551000000003
 31
0.0
 12
77.534216999999998
 22
60.856551000000003
 32
0.0
 13
77.534216999999998
 23
60.856551000000003
 33
0.0
  0
SOLID
  5
EA8
  8
0
  6
BYBLOCK
 10
77.36754999999998
 20
66.356550999999996
 30
0.0
 11
77.700882999999976
 21
66.356550999999996
 31
0.0
 12
77.534216999999998
 22
67.356550999999996
 32
0.0
 13
77.534216999999998
 23
67.356550999999996
 33
0.0
  0
TEXT
  5
EA9
  8
0
  6
BYBLOCK
 62
     0
 10
77.034216999999984
 20
63.20655099999999
 30
0.0
 40
1.25
  1
6.5
 50
90.0
 41
0.72
  0
POINT
  5
EAA
  8
DEFPOINTS
  6
BYBLOCK
 62
     0
 10
71.369354999999985
 20
60.856551000000003
 30
0.0
  0
POINT
  5
EAB
  8
DEFPOINTS
  6
BYBLOCK
 62
     0
 10
72.324503000000007
 20
67.356550999999996
 30
0.0
  0
POINT
  5
EAC
  8
DEFPOINTS
  6
BYBLOCK
 62
     0
 10
77.534216999999998
 20
67.356550999999996
 30
0.0
  0
ENDBLK
  5
EAD
  8
0
  0
BLOCK
  8
0
  2
*D9
 70
     1
 10
0.0
 20
0.0
 30
0.0
  3
*D9
  1

  0
LINE
  5
EB0
  8
0
  6
BYBLOCK
 10
66.595597999999995
 20
8.1999999999999975
 30
0.0
 11
66.595597999999995
 21
15.439453
 31
0.0
  0
LINE
  5
EB1
  8
0
  6
BYBLOCK
 10
53.795597999999998
 20
8.1999999999999975
 30
0.0
 11
53.795597999999998
 21
15.439453
 31
0.0
  0
LINE
  5
EB2
  8
0
  6
BYBLOCK
 10
65.595597999999995
 20
14.939453
 30
0.0
 11
54.795597999999998
 21
14.939453
 31
0.0
  0
SOLID
  5
EB3
  8
0
  6
BYBLOCK
 10
65.595597999999995
 20
15.106120000000001
 30
0.0
 11
65.595597999999995
 21
14.772786999999999
 31
0.0
 12
66.595597999999995
 22
14.939453
 32
0.0
 13
66.595597999999995
 23
14.939453
 33
0.0
  0
SOLID
  5
EB4
  8
0
  6
BYBLOCK
 10
54.795597999999998
 20
15.106120000000001
 30
0.0
 11
54.795597999999998
 21
14.772786999999999
 31
0.0
 12
53.795597999999998
 22
14.939453
 32
0.0
 13
53.795597999999998
 23
14.939453
 33
0.0
  0
TEXT
  5
EB5
  8
0
  6
BYBLOCK
 62
     0
 10
58.995598000000001
 20
15.439453
 30
0.0
 40
1.25
  1
12.8
 41
0.72
  0
POINT
  5
EB6
  8
DEFPOINTS
  6
BYBLOCK
 62
     0
 10
66.595597999999995
 20
7.7000000000000002
 30
0.0
  0
POINT
  5
EB7
  8
DEFPOINTS
  6
BYBLOCK
 62
     0
 10
53.795597999999998
 20
7.7000000000000002
 30
0.0
  0
POINT
  5
EB8
  8
DEFPOINTS
  6
BYBLOCK
 62
     0
 10
53.795597999999998
 20
14.939453
 30
0.0
  0
ENDBLK
  5
EB9
  8
0
  0
BLOCK
  8
0
  2
*D10
 70
     1
 10
0.0
 20
0.0
 30
0.0
  3
*D10
  1

  0
LINE
  5
EBC
  8
0
  6
BYBLOCK
 10
66.395597999999993
 20
-10.0
 30
0.0
 11
66.395597999999993
 21
-18.780498000000001
 31
0.0
  0
LINE
  5
EBD
  8
0
  6
BYBLOCK
 10
53.995598000000001
 20
-10.0
 30
0.0
 11
53.995598000000001
 21
-18.780498000000001
 31
0.0
  0
LINE
  5
EBE
  8
0
  6
BYBLOCK
 10
65.395597999999993
 20
-18.280498000000001
 30
0.0
 11
54.995598000000001
 21
-18.280498000000001
 31
0.0
  0
SOLID
  5
EBF
  8
0
  6
BYBLOCK
 10
65.395597999999993
 20
-18.113831000000001
 30
0.0
 11
65.395597999999993
 21
-18.447164999999991
 31
0.0
 12
66.395597999999993
 22
-18.280498000000001
 32
0.0
 13
66.395597999999993
 23
-18.280498000000001
 33
0.0
  0
SOLID
  5
EC0
  8
0
  6
BYBLOCK
 10
54.995598000000001
 20
-18.113831000000001
 30
0.0
 11
54.995598000000001
 21
-18.447164999999991
 31
0.0
 12
53.995598000000001
 22
-18.280498000000001
 32
0.0
 13
53.995598000000001
 23
-18.280498000000001
 33
0.0
  0
TEXT
  5
EC1
  8
0
  6
BYBLOCK
 62
     0
 10
58.995598000000001
 20
-17.780498000000001
 30
0.0
 40
1.25
  1
12.4
 41
0.72
  0
POINT
  5
EC2
  8
DEFPOINTS
  6
BYBLOCK
 62
     0
 10
66.395597999999993
 20
-9.5
 30
0.0
  0
POINT
  5
EC3
  8
DEFPOINTS
  6
BYBLOCK
 62
     0
 10
53.995598000000001
 20
-9.5
 30
0.0
  0
POINT
  5
EC4
  8
DEFPOINTS
  6
BYBLOCK
 62
     0
 10
53.995598000000001
 20
-18.280498000000001
 30
0.0
  0
ENDBLK
  5
EC5
  8
0
  0
BLOCK
  8
0
  2
*D11
 70
     1
 10
0.0
 20
0.0
 30
0.0
  3
*D11
  1

  0
LINE
  5
EC8
  8
0
  6
BYBLOCK
 10
69.902843000000004
 20
60.606551000000003
 30
0.0
 11
75.659176999999985
 21
60.606551000000003
 31
0.0
  0
LINE
  5
EC9
  8
0
  6
BYBLOCK
 10
69.902843000000004
 20
61.106551000000003
 30
0.0
 11
75.659176999999985
 21
61.106551000000003
 31
0.0
  0
LINE
  5
ECA
  8
0
  6
BYBLOCK
 10
75.159177
 20
59.606551000000003
 30
0.0
 11
75.159177
 21
58.606551000000003
 31
0.0
  0
LINE
  5
ECB
  8
0
  6
BYBLOCK
 10
75.159177
 20
62.106551000000003
 30
0.0
 11
75.159177
 21
66.656551000000007
 31
0.0
  0
LINE
  5
ECC
  8
0
  6
BYBLOCK
 10
75.159177
 20
60.606551000000003
 30
0.0
 11
75.159177
 21
61.106551000000003
 31
0.0
  0
SOLID
  5
ECD
  8
0
  6
BYBLOCK
 10
74.992509999999982
 20
59.606551000000003
 30
0.0
 11
75.325843000000006
 21
59.606551000000003
 31
0.0
 12
75.159177
 22
60.606551000000003
 32
0.0
 13
75.159177
 23
60.606551000000003
 33
0.0
  0
SOLID
  5
ECE
  8
0
  6
BYBLOCK
 10
74.992509999999982
 20
62.106551000000003
 30
0.0
 11
75.325843000000006
 21
62.106551000000003
 31
0.0
 12
75.159177
 22
61.106551000000003
 32
0.0
 13
75.159177
 23
61.106551000000003
 33
0.0
  0
TEXT
  5
ECF
  8
0
  6
BYBLOCK
 62
     0
 10
74.659177
 20
63.606551000000003
 30
0.0
 40
1.25
  1
t0.5
 50
90.0
 41
0.72
  0
POINT
  5
ED0
  8
DEFPOINTS
  6
BYBLOCK
 62
     0
 10
69.402843000000004
 20
60.606551000000003
 30
0.0
  0
POINT
  5
ED1
  8
DEFPOINTS
  6
BYBLOCK
 62
     0
 10
69.402843000000004
 20
61.106551000000003
 30
0.0
  0
POINT
  5
ED2
  8
DEFPOINTS
  6
BYBLOCK
 62
     0
 10
75.159177
 20
61.106551000000003
 30
0.0
  0
ENDBLK
  5
ED3
  8
0
  0
BLOCK
  8
0
  2
*D12
 70
     1
 10
0.0
 20
0.0
 30
0.0
  3
*D12
  1

  0
LINE
  5
ED6
  8
0
  6
BYBLOCK
 10
5.0999999999999979
 20
7.2753009999999989
 30
0.0
 11
5.0999999999999979
 21
16.305928000000002
 31
0.0
  0
LINE
  5
ED7
  8
0
  6
BYBLOCK
 10
-5.0999999999999979
 20
7.2753009999999989
 30
0.0
 11
-5.0999999999999979
 21
16.305928000000002
 31
0.0
  0
LINE
  5
ED8
  8
0
  6
BYBLOCK
 10
4.0999999999999979
 20
15.805927999999991
 30
0.0
 11
-4.0999999999999979
 21
15.805927999999991
 31
0.0
  0
SOLID
  5
ED9
  8
0
  6
BYBLOCK
 10
4.0999999999999979
 20
15.972595
 30
0.0
 11
4.0999999999999979
 21
15.639260999999991
 31
0.0
 12
5.0999999999999979
 22
15.805927999999991
 32
0.0
 13
5.0999999999999979
 23
15.805927999999991
 33
0.0
  0
SOLID
  5
EDA
  8
0
  6
BYBLOCK
 10
-4.0999999999999979
 20
15.972595
 30
0.0
 11
-4.0999999999999979
 21
15.639260999999991
 31
0.0
 12
-5.0999999999999979
 22
15.805927999999991
 32
0.0
 13
-5.0999999999999979
 23
15.805927999999991
 33
0.0
  0
TEXT
  5
EDB
  8
0
  6
BYBLOCK
 62
     0
 10
-1.125
 20
16.305928000000002
 30
0.0
 40
1.25
  1
10.2
 41
0.72
  0
POINT
  5
EDC
  8
DEFPOINTS
  6
BYBLOCK
 62
     0
 10
5.0999999999999979
 20
6.775300999999998
 30
0.0
  0
POINT
  5
EDD
  8
DEFPOINTS
  6
BYBLOCK
 62
     0
 10
-5.0999999999999979
 20
6.775300999999998
 30
0.0
  0
POINT
  5
EDE
  8
DEFPOINTS
  6
BYBLOCK
 62
     0
 10
-5.0999999999999979
 20
15.805927999999991
 30
0.0
  0
ENDBLK
  5
EDF
  8
0
  0
BLOCK
  8
0
  2
*D13
 70
     1
 10
0.0
 20
0.0
 30
0.0
  3
*D13
  1

  0
LINE
  5
EE2
  8
0
  6
BYBLOCK
 10
44.517088000000001
 20
62.57549199999999
 30
0.0
 11
37.873621
 21
64.164880000000011
 31
0.0
  0
LINE
  5
EE3
  8
0
  6
BYBLOCK
 10
47.416564999999999
 20
74.694987999999981
 30
0.0
 11
40.773099000000002
 21
76.28437599999998
 31
0.0
  0
LINE
  5
EE4
  8
0
  6
BYBLOCK
 10
38.592573000000002
 20
65.021096999999997
 30
0.0
 11
41.026701000000003
 21
75.195483999999965
 31
0.0
  0
SOLID
  5
EE5
  8
0
  6
BYBLOCK
 10
38.430479999999989
 20
65.059876000000003
 30
0.0
 11
38.754665000000003
 21
64.982318000000006
 31
0.0
 12
38.359898000000001
 22
64.048543000000009
 32
0.0
 13
38.359898000000001
 23
64.048543000000009
 33
0.0
  0
SOLID
  5
EE6
  8
0
  6
BYBLOCK
 10
40.864609000000002
 20
75.234262999999999
 30
0.0
 11
41.188793999999987
 21
75.156705000000002
 31
0.0
 12
41.259376000000003
 22
76.168038999999979
 32
0.0
 13
41.259376000000003
 23
76.168038999999979
 33
0.0
  0
TEXT
  5
EE7
  8
0
  6
BYBLOCK
 62
     0
 10
39.044150000000002
 20
69.057562000000004
 30
0.0
 40
1.25
  1
12.3
 50
76.545405000000002
 41
0.72
  0
POINT
  5
EE8
  8
DEFPOINTS
  6
BYBLOCK
 62
     0
 10
45.003365000000002
 20
62.459155000000003
 30
0.0
  0
POINT
  5
EE9
  8
DEFPOINTS
  6
BYBLOCK
 62
     0
 10
47.902842999999983
 20
74.578649999999982
 30
0.0
  0
POINT
  5
EEA
  8
DEFPOINTS
  6
BYBLOCK
 62
     0
 10
41.259376000000003
 20
76.168038999999979
 30
0.0
  0
ENDBLK
  5
EEB
  8
0
  0
BLOCK
  8
0
  2
*D14
 70
     1
 10
0.0
 20
0.0
 30
0.0
  3
*D14
  1

  0
LINE
  5
EEE
  8
0
  6
BYBLOCK
 10
49.90284299999999
 20
56.35655100000001
 30
0.0
 11
49.90284299999999
 21
48.683494000000003
 31
0.0
  0
LINE
  5
EEF
  8
0
  6
BYBLOCK
 10
44.762661000000001
 20
62.518306999999993
 30
0.0
 11
44.762661000000001
 21
48.683494000000003
 31
0.0
  0
LINE
  5
EF0
  8
0
  6
BYBLOCK
 10
48.902842999999997
 20
49.183494000000003
 30
0.0
 11
45.762661000000001
 21
49.183494000000003
 31
0.0
  0
SOLID
  5
EF1
  8
0
  6
BYBLOCK
 10
48.902842999999997
 20
49.350161
 30
0.0
 11
48.902842999999997
 21
49.016826999999999
 31
0.0
 12
49.90284299999999
 22
49.183494000000003
 32
0.0
 13
49.90284299999999
 23
49.183494000000003
 33
0.0
  0
SOLID
  5
EF2
  8
0
  6
BYBLOCK
 10
45.762661000000001
 20
49.350161
 30
0.0
 11
45.762661000000001
 21
49.016826999999999
 31
0.0
 12
44.762661000000001
 22
49.183494000000003
 32
0.0
 13
44.762661000000001
 23
49.183494000000003
 33
0.0
  0
TEXT
  5
EF3
  8
0
  6
BYBLOCK
 62
     0
 10
46.432752000000001
 20
49.68349400000001
 30
0.0
 40
1.25
  1
5.3
 41
0.72
  0
POINT
  5
EF4
  8
DEFPOINTS
  6
BYBLOCK
 62
     0
 10
49.90284299999999
 20
56.856551000000003
 30
0.0
  0
POINT
  5
EF5
  8
DEFPOINTS
  6
BYBLOCK
 62
     0
 10
44.762661000000001
 20
63.018307
 30
0.0
  0
POINT
  5
EF6
  8
DEFPOINTS
  6
BYBLOCK
 62
     0
 10
44.762661000000001
 20
49.183494000000003
 30
0.0
  0
ENDBLK
  5
EF7
  8
0
  0
BLOCK
  8
0
  2
*D15
 70
     1
 10
0.0
 20
0.0
 30
0.0
  3
*D15
  1

  0
LINE
  5
EFA
  8
0
  6
BYBLOCK
 10
35.20207199999998
 20
-10.0
 30
0.0
 11
35.20207199999998
 21
-18.719929
 31
0.0
  0
LINE
  5
EFB
  8
0
  6
BYBLOCK
 10
41.602072
 20
-7.0913060000000003
 30
0.0
 11
41.602072
 21
-18.719929
 31
0.0
  0
LINE
  5
EFC
  8
0
  6
BYBLOCK
 10
36.20207199999998
 20
-18.219929
 30
0.0
 11
40.602071999999993
 21
-18.219929
 31
0.0
  0
SOLID
  5
EFD
  8
0
  6
BYBLOCK
 10
36.20207199999998
 20
-18.053262
 30
0.0
 11
36.20207199999998
 21
-18.386596000000001
 31
0.0
 12
35.20207199999998
 22
-18.219929
 32
0.0
 13
35.20207199999998
 23
-18.219929
 33
0.0
  0
SOLID
  5
EFE
  8
0
  6
BYBLOCK
 10
40.602071999999993
 20
-18.053262
 30
0.0
 11
40.602071999999993
 21
-18.386596000000001
 31
0.0
 12
41.602072
 22
-18.219929
 32
0.0
 13
41.602072
 23
-18.219929
 33
0.0
  0
TEXT
  5
EFF
  8
0
  6
BYBLOCK
 62
     0
 10
37.502071999999998
 20
-17.719929
 30
0.0
 40
1.25
  1
6.4
 41
0.72
  0
POINT
  5
F00
  8
DEFPOINTS
  6
BYBLOCK
 62
     0
 10
35.20207199999998
 20
-9.5
 30
0.0
  0
POINT
  5
F01
  8
DEFPOINTS
  6
BYBLOCK
 62
     0
 10
41.602072
 20
-6.5913060000000003
 30
0.0
  0
POINT
  5
F02
  8
DEFPOINTS
  6
BYBLOCK
 62
     0
 10
41.602072
 20
-18.219929
 30
0.0
  0
ENDBLK
  5
F03
  8
0
  0
BLOCK
  8
0
  2
*D16
 70
     1
 10
0.0
 20
0.0
 30
0.0
  3
*D16
  1

  0
LINE
  5
F06
  8
0
  6
BYBLOCK
 10
7.5
 20
10.5
 30
0.0
 11
7.5
 21
18.634751000000001
 31
0.0
  0
LINE
  5
F07
  8
0
  6
BYBLOCK
 10
-7.5
 20
10.5
 30
0.0
 11
-7.5
 21
18.634751000000001
 31
0.0
  0
LINE
  5
F08
  8
0
  6
BYBLOCK
 10
6.5
 20
18.134751000000001
 30
0.0
 11
-6.5
 21
18.134751000000001
 31
0.0
  0
SOLID
  5
F09
  8
0
  6
BYBLOCK
 10
6.5
 20
18.301417999999991
 30
0.0
 11
6.5
 21
17.968084000000001
 31
0.0
 12
7.5
 22
18.134751000000001
 32
0.0
 13
7.5
 23
18.134751000000001
 33
0.0
  0
SOLID
  5
F0A
  8
0
  6
BYBLOCK
 10
-6.5
 20
18.301417999999991
 30
0.0
 11
-6.5
 21
17.968084000000001
 31
0.0
 12
-7.5
 22
18.134751000000001
 32
0.0
 13
-7.5
 23
18.134751000000001
 33
0.0
  0
TEXT
  5
F0B
  8
0
  6
BYBLOCK
 62
     0
 10
-0.6
 20
18.634751000000001
 30
0.0
 40
1.25
  1
15
 41
0.72
  0
POINT
  5
F0C
  8
DEFPOINTS
  6
BYBLOCK
 62
     0
 10
7.5
 20
10.0
 30
0.0
  0
POINT
  5
F0D
  8
DEFPOINTS
  6
BYBLOCK
 62
     0
 10
-7.5
 20
10.0
 30
0.0
  0
POINT
  5
F0E
  8
DEFPOINTS
  6
BYBLOCK
 62
     0
 10
-7.5
 20
18.134751000000001
 30
0.0
  0
ENDBLK
  5
F0F
  8
0
  0
BLOCK
  8
0
  2
*D17
 70
     1
 10
0.0
 20
0.0
 30
0.0
  3
*D17
  1

  0
LINE
  5
F12
  8
0
  6
BYBLOCK
 10
45.272263999999993
 20
68.858218999999991
 30
0.0
 11
42.145445999999993
 21
69.649952999999996
 31
0.0
  0
LINE
  5
F13
  8
0
  6
BYBLOCK
 10
45.272263999999993
 20
65.854883999999998
 30
0.0
 11
42.145445999999993
 21
65.063148999999996
 31
0.0
  0
ARC
  5
F14
  8
0
  6
BYBLOCK
 10
51.202843000000001
 20
67.356550999999996
 30
0.0
 40
8.8432399999999998
 50
172.2734199999999
 51
187.7265799999999
  0
SOLID
  5
F15
  8
0
  6
BYBLOCK
 10
42.276268999999992
 20
68.577197999999996
 30
0.0
 11
42.603512999999992
 21
68.513779
 31
0.0
 12
42.630148999999989
 22
69.527222999999992
 32
0.0
 13
42.630148999999989
 23
69.527222999999992
 33
0.0
  0
SOLID
  5
F16
  8
0
  6
BYBLOCK
 10
42.603512999999992
 20
66.199324000000004
 30
0.0
 11
42.276268999999992
 21
66.135904000000011
 31
0.0
 12
42.630148999999989
 22
65.185880000000012
 32
0.0
 13
42.630148999999989
 23
65.185880000000012
 33
0.0
  0
TEXT
  5
F17
  8
0
  6
BYBLOCK
 62
     0
 10
41.859603
 20
66.996550999999997
 30
0.0
 40
1.25
  1
ƒ¿
 50
90.0
 41
0.72
  0
POINT
  5
F18
  8
DEFPOINTS
  6
BYBLOCK
 62
     0
 10
42.389800999999999
 20
68.086745999999991
 30
-0.001526
  0
POINT
  5
F19
  8
DEFPOINTS
  6
BYBLOCK
 62
     0
 10
52.72102799999999
 20
67.740966999999998
 30
0.0
  0
POINT
  5
F1A
  8
DEFPOINTS
  6
BYBLOCK
 62
     0
 10
45.756966999999989
 20
68.735488000000004
 30
0.0
  0
POINT
  5
F1B
  8
DEFPOINTS
  6
BYBLOCK
 62
     0
 10
52.72102799999999
 20
66.972134999999994
 30
0.0
  0
POINT
  5
F1C
  8
DEFPOINTS
  6
BYBLOCK
 62
     0
 10
45.756966999999989
 20
65.977614000000003
 30
0.0
  0
ENDBLK
  5
F1D
  8
0
  0
BLOCK
  8
0
  2
*D18
 70
     1
 10
0.0
 20
0.0
 30
0.0
  3
*D18
  1

  0
LINE
  5
F20
  8
0
  6
BYBLOCK
 10
55.100771000000002
 20
9.4467770000000009
 30
0.0
 11
60.633926000000002
 21
9.4467770000000009
 31
0.0
  0
LINE
  5
F21
  8
0
  6
BYBLOCK
 10
55.100771000000002
 20
28.646777
 30
0.0
 11
60.633926000000002
 21
28.646777
 31
0.0
  0
LINE
  5
F22
  8
0
  6
BYBLOCK
 10
60.133926000000002
 20
10.446777000000001
 30
0.0
 11
60.133926000000002
 21
27.646777
 31
0.0
  0
SOLID
  5
F23
  8
0
  6
BYBLOCK
 10
59.967258999999999
 20
10.446777000000001
 30
0.0
 11
60.300592000000002
 21
10.446777000000001
 31
0.0
 12
60.133926000000002
 22
9.4467770000000009
 32
0.0
 13
60.133926000000002
 23
9.4467770000000009
 33
0.0
  0
SOLID
  5
F24
  8
0
  6
BYBLOCK
 10
59.967258999999999
 20
27.646777
 30
0.0
 11
60.300592000000002
 21
27.646777
 31
0.0
 12
60.133926000000002
 22
28.646777
 32
0.0
 13
60.133926000000002
 23
28.646777
 33
0.0
  0
TEXT
  5
F25
  8
0
  6
BYBLOCK
 62
     0
 10
59.633926000000002
 20
18.746776999999991
 30
0.0
 40
1.25
  1
Y
 50
90.0
 41
0.72
  0
POINT
  5
F26
  8
DEFPOINTS
  6
BYBLOCK
 62
     0
 10
54.600770999999988
 20
9.4467770000000009
 30
0.0
  0
POINT
  5
F27
  8
DEFPOINTS
  6
BYBLOCK
 62
     0
 10
54.600770999999988
 20
28.646777
 30
0.0
  0
POINT
  5
F28
  8
DEFPOINTS
  6
BYBLOCK
 62
     0
 10
60.133926000000002
 20
28.646777
 30
0.0
  0
ENDBLK
  5
F29
  8
0
  0
BLOCK
  8
0
  2
*D19
 70
     1
 10
0.0
 20
0.0
 30
0.0
  3
*D19
  1

  0
LINE
  5
F2C
  8
0
  6
BYBLOCK
 10
54.600770999999988
 20
29.146777
 30
0.0
 11
54.600770999999988
 21
32.486507000000003
 31
0.0
  0
LINE
  5
F2D
  8
0
  6
BYBLOCK
 10
41.700771000000003
 20
29.146777
 30
0.0
 11
41.700771000000003
 21
32.486507000000003
 31
0.0
  0
LINE
  5
F2E
  8
0
  6
BYBLOCK
 10
53.60077099999998
 20
31.986506999999989
 30
0.0
 11
42.700771000000003
 21
31.986506999999989
 31
0.0
  0
SOLID
  5
F2F
  8
0
  6
BYBLOCK
 10
53.60077099999998
 20
32.153172999999981
 30
0.0
 11
53.60077099999998
 21
31.819839999999989
 31
0.0
 12
54.600770999999988
 22
31.986506999999989
 32
0.0
 13
54.600770999999988
 23
31.986506999999989
 33
0.0
  0
SOLID
  5
F30
  8
0
  6
BYBLOCK
 10
42.700771000000003
 20
32.153172999999981
 30
0.0
 11
42.700771000000003
 21
31.819839999999989
 31
0.0
 12
41.700771000000003
 22
31.986506999999989
 32
0.0
 13
41.700771000000003
 23
31.986506999999989
 33
0.0
  0
TEXT
  5
F31
  8
0
  6
BYBLOCK
 62
     0
 10
47.850771000000002
 20
32.486507000000003
 30
0.0
 40
1.25
  1
X
 41
0.72
  0
POINT
  5
F32
  8
DEFPOINTS
  6
BYBLOCK
 62
     0
 10
54.600770999999988
 20
28.646777
 30
0.0
  0
POINT
  5
F33
  8
DEFPOINTS
  6
BYBLOCK
 62
     0
 10
41.700771000000003
 20
28.646777
 30
0.0
  0
POINT
  5
F34
  8
DEFPOINTS
  6
BYBLOCK
 62
     0
 10
41.700771000000003
 20
31.986506999999989
 30
0.0
  0
ENDBLK
  5
F35
  8
0
  0
BLOCK
  8
0
  2
*U20
 70
     1
 10
0.0
 20
0.0
 30
0.0
  3
*U20
  1

  0
SOLID
  5
F38
  8
DIM
  6
CONTINUOUS
 10
59.827443999999993
 20
64.417393000000004
 30
0.001526
 11
59.717608999999989
 21
64.682558
 31
0.001526
 12
59.717608999999989
 22
64.152228000000008
 32
0.001526
 13
59.717608999999989
 23
64.152228000000008
 33
0.001526
  0
SOLID
  5
F39
  8
DIM
  6
CONTINUOUS
 10
59.452443999999993
 20
64.792393000000004
 30
0.001526
 11
59.717608999999989
 21
64.152228000000008
 31
0.001526
 12
59.717608999999989
 22
64.682558
 32
0.001526
 13
59.717608999999989
 23
64.682558
 33
0.001526
  0
SOLID
  5
F3A
  8
DIM
  6
CONTINUOUS
 10
59.717608999999989
 20
64.152228000000008
 30
0.001526
 11
59.452443999999993
 21
64.792393000000004
 31
0.001526
 12
59.452443999999993
 22
64.042393000000004
 32
0.001526
 13
59.452443999999993
 23
64.042393000000004
 33
0.001526
  0
SOLID
  5
F3B
  8
DIM
  6
CONTINUOUS
 10
59.187277999999999
 20
64.682558
 30
0.001526
 11
59.452443999999993
 21
64.042393000000004
 31
0.001526
 12
59.452443999999993
 22
64.792393000000004
 32
0.001526
 13
59.452443999999993
 23
64.792393000000004
 33
0.001526
  0
SOLID
  5
F3C
  8
DIM
  6
CONTINUOUS
 10
59.452443999999993
 20
64.042393000000004
 30
0.001526
 11
59.187277999999999
 21
64.682558
 31
0.001526
 12
59.187277999999999
 22
64.152228000000008
 32
0.001526
 13
59.187277999999999
 23
64.152228000000008
 33
0.001526
  0
SOLID
  5
F3D
  8
DIM
  6
CONTINUOUS
 10
59.077443999999993
 20
64.417393000000004
 30
0.001526
 11
59.187277999999999
 21
64.152228000000008
 31
0.001526
 12
59.187277999999999
 22
64.682558
 32
0.001526
 13
59.187277999999999
 23
64.682558
 33
0.001526
  0
ENDBLK
  5
F3E
  8
0
  0
ENDSEC
  0
SECTION
  2
ENTITIES
  0
LINE
  5
F3F
  8
DIM
  6
CONTINUOUS
 10
19.700771
 20
66.356550999999996
 30
0.001526
 11
14.204478999999999
 21
66.356550999999996
 31
0.001526
  0
LINE
  5
F40
  8
DIM
  6
CONTINUOUS
 10
21.200771
 20
64.826906999999991
 30
0.001526
 11
19.700771
 21
66.356550999999996
 31
0.001526
  0
LINE
  5
F41
  8
DIM
  6
CONTINUOUS
 10
71.523172999999986
 20
50.033470000000001
 30
0.001526
 11
79.189044999999979
 21
50.033470000000001
 31
0.001526
  0
LINE
  5
F42
  8
DIM
  6
CONTINUOUS
 10
67.590737000000004
 20
60.606551000000003
 30
0.001526
 11
71.523172999999986
 21
50.033470000000001
 31
0.001526
  0
TEXT
  5
F43
  8
DIM
 10
41.624572000000001
 20
72.433125000000004
 30
0.001526
 40
1.25
  1
R19
 50
350.43246900000003
 41
0.7120000000000001
  0
SOLID
  5
F44
  8
DIM
 10
46.343418
 20
69.954194000000001
 30
0.001526
 11
46.387180999999998
 21
70.213836999999998
 31
0.001526
 12
47.351390000000002
 22
69.917805999999999
 32
0.001526
 13
47.351390000000002
 23
69.917805999999999
 33
0.001526
  0
LINE
  5
F45
  8
DIM
  6
CONTINUOUS
 10
41.234707999999991
 20
70.94880000000002
 30
0.001526
 11
47.351390000000002
 21
69.917805999999999
 31
0.001526
  0
LINE
  5
F46
  8
DIM
  6
CONTINUOUS
 10
70.638188999999997
 20
52.412913000000003
 30
0.001526
 11
78.849603999999999
 21
52.412913000000003
 31
0.001526
  0
LINE
  5
F47
  8
DIM
  6
CONTINUOUS
 10
67.590737000000004
 20
60.606551000000003
 30
0.001526
 11
70.638188999999997
 21
52.412913000000003
 31
0.001526
  0
LINE
  5
F48
  8
DIM
  6
CONTINUOUS
 10
61.700771000000003
 20
51.35655100000001
 30
0.001526
 11
49.997153999999988
 21
51.35655100000001
 31
0.001526
  0
LINE
  5
F49
  8
DIM
  6
CONTINUOUS
 10
59.452443999999993
 20
64.417393000000004
 30
0.001526
 11
61.700771000000003
 21
51.35655100000001
 31
0.001526
  0
TEXT
  5
F4A
  8
DIM
 10
52.671408999999997
 20
87.960707999999983
 30
0.001526
 40
1.25
  1
R1.2
 41
0.7120000000000001
  0
SOLID
  5
F4B
  8
DIM
 10
56.007063000000002
 20
85.040736999999964
 30
0.001526
 11
56.253242000000007
 21
85.134146999999999
 31
0.001526
 12
56.484912000000001
 22
84.152484999999999
 32
0.001526
 13
56.484912000000001
 23
84.152484999999999
 33
0.001526
  0
LINE
  5
F4C
  8
DIM
  6
CONTINUOUS
 10
56.91062500000001
 20
83.030535999999998
 30
0.001526
 11
55.14663800000001
 21
87.679457999999968
 31
0.001526
  0
LINE
  5
F4D
  8
DIM
  6
CONTINUOUS
 10
55.14663800000001
 20
87.679457999999968
 30
0.001526
 11
52.166409000000002
 21
87.679457999999968
 31
0.001526
  0
TEXT
  5
F4E
  8
DIM
 10
60.773871
 20
86.523415
 30
0.001526
 40
1.25
  1
R0.65
 41
0.7120000000000001
  0
SOLID
  5
F4F
  8
DIM
 10
58.813278000000011
 20
84.528710000000004
 30
0.001526
 11
59.041364999999992
 21
84.397592000000003
 31
0.001526
 12
58.429349000000002
 22
83.596905000000007
 32
0.001526
 13
58.429349000000002
 23
83.596905000000007
 33
0.001526
  0
LINE
  5
F50
  8
DIM
  6
CONTINUOUS
 10
58.110624999999999
 20
83.030535999999998
 30
0.001526
 11
59.95686899999999
 21
86.242165000000014
 31
0.001526
  0
LINE
  5
F51
  8
DIM
  6
CONTINUOUS
 10
59.95686899999999
 20
86.242165000000014
 30
0.001526
 11
64.318871000000001
 21
86.242165000000014
 31
0.001526
  0
LINE
  5
F52
  8
CENTER
 10
28.700771
 20
79.163547999999963
 30
0.001526
 11
28.700771
 21
55.989781999999998
 31
0.001526
  0
LINE
  5
F53
  8
CENTER
 10
20.093278999999999
 20
67.356550999999996
 30
0.001526
 11
36.860646000000003
 21
67.356550999999996
 31
0.001526
  0
LINE
  5
F54
  8
GAIKEI
  6
CONTINUOUS
 10
51.460577000000001
 20
68.374428000000009
 30
0.001526
 11
51.202843000000001
 21
67.356550999999996
 31
0.001526
  0
LINE
  5
F55
  8
GAIKEI
  6
CONTINUOUS
 10
28.700771
 20
74.631851999999981
 30
0.001526
 11
33.300770999999997
 21
74.631851999999981
 31
0.001526
  0
LINE
  5
F56
  8
GAIKEI
  6
CONTINUOUS
 10
33.80077099999999
 20
74.131851999999981
 30
0.001526
 11
33.80077099999999
 21
67.356550999999996
 31
0.001526
  0
LINE
  5
F57
  8
GAIKEI
  6
CONTINUOUS
 10
33.300770999999997
 20
60.451104999999991
 30
0.001526
 11
28.700771
 21
60.451104999999991
 31
0.001526
  0
LINE
  5
F58
  8
GAIKEI
  6
CONTINUOUS
 10
33.80077099999999
 20
67.356550999999996
 30
0.001526
 11
33.80077099999999
 21
60.951104999999998
 31
0.001526
  0
LINE
  5
F59
  8
GAIKEI
  6
CONTINUOUS
 10
24.100771000000002
 20
74.631851999999981
 30
0.001526
 11
28.700771
 21
74.631851999999981
 31
0.001526
  0
LINE
  5
F5A
  8
GAIKEI
  6
CONTINUOUS
 10
23.600770999999991
 20
67.356550999999996
 30
0.001526
 11
23.600770999999991
 21
74.131851999999981
 31
0.001526
  0
LINE
  5
F5B
  8
GAIKEI
  6
CONTINUOUS
 10
28.700771
 20
60.451104999999991
 30
0.001526
 11
24.100771000000002
 21
60.451104999999991
 31
0.001526
  0
LINE
  5
F5C
  8
GAIKEI
  6
CONTINUOUS
 10
23.600770999999991
 20
60.951104999999998
 30
0.001526
 11
23.600770999999991
 21
67.356550999999996
 31
0.001526
  0
LINE
  5
F5D
  8
GAIKEI
  6
CONTINUOUS
 10
45.003365000000002
 20
62.459155000000003
 30
0.001526
 11
47.640456999999991
 21
60.984784999999981
 31
0.001526
  0
LINE
  5
F5E
  8
GAIKEI
  6
CONTINUOUS
 10
51.202843000000001
 20
67.356550999999996
 30
0.001526
 11
50.945108000000012
 21
66.338674999999995
 31
0.001526
  0
ARC
  5
F5F
  8
GAIKEI
  6
CONTINUOUS
 10
51.202843000000001
 20
67.356550999999996
 30
0.001526
 40
7.2999999999999989
 50
240.7909149999999
 51
243.12440599999999
  0
ARC
  5
F60
  8
GAIKEI
  6
CONTINUOUS
 10
48.088005000000003
 20
74.114198999999999
 30
0.001526
 40
0.5
 50
165.79091499999981
 51
183.0525299999999
  0
ARC
  5
F61
  8
GAIKEI
  6
CONTINUOUS
 10
28.61567299999999
 20
73.075794999999999
 30
0.001526
 40
19.0
 50
345.79091499999993
 51
3.0525299999999991
  0
ARC
  5
F62
  8
GAIKEI
  6
CONTINUOUS
 10
51.202843000000001
 20
67.356550999999996
 30
0.001526
 40
1.05
 50
345.79091499999993
 51
165.79091499999981
  0
ARC
  5
F63
  8
GAIKEI
  6
CONTINUOUS
 10
45.247363999999997
 20
62.895577000000003
 30
0.001526
 40
0.5
 50
180.0
 51
240.7909149999999
  0
ARC
  5
F64
  8
GAIKEI
  6
CONTINUOUS
 10
28.61567299999999
 20
73.075794999999999
 30
0.001526
 40
19.0
 50
328.52929999999992
 51
345.79091499999993
  0
ARC
  5
F65
  8
GAIKEI
  6
CONTINUOUS
 10
51.202843000000001
 20
67.356550999999996
 30
0.001526
 40
1.05
 50
165.79091499999981
 51
345.79091499999993
  0
ARC
  5
F66
  8
GAIKEI
  6
CONTINUOUS
 10
45.247363999999997
 20
62.895577000000003
 30
0.001526
 40
0.5
 50
165.79091499999981
 51
180.0
  0
ARC
  5
F67
  8
GAIKEI
  6
CONTINUOUS
 10
45.247363999999997
 20
62.895577000000003
 30
0.001526
 40
0.5
 50
148.52930000000001
 51
165.79091499999981
  0
ARC
  5
F68
  8
GAIKEI
  6
CONTINUOUS
 10
48.088005000000003
 20
74.114198999999999
 30
0.001526
 40
0.5
 50
111.735603
 51
165.79091499999981
  0
ARC
  5
F69
  8
GAIKEI
  6
CONTINUOUS
 10
24.100771000000002
 20
74.131851999999981
 30
0.001526
 40
0.5
 50
90.0
 51
180.0
  0
ARC
  5
F6A
  8
GAIKEI
  6
CONTINUOUS
 10
33.300770999999997
 20
74.131851999999981
 30
0.001526
 40
0.5
 50
0.0
 51
90.0
  0
ARC
  5
F6B
  8
GAIKEI
  6
CONTINUOUS
 10
33.300770999999997
 20
60.951104999999998
 30
0.001526
 40
0.5
 50
270.0
 51
0.0
  0
ARC
  5
F6C
  8
GAIKEI
  6
CONTINUOUS
 10
24.100771000000002
 20
60.951104999999998
 30
0.001526
 40
0.5
 50
180.0
 51
270.0
  0
INSERT
  5
F6D
  8
DIM
  6
CONTINUOUS
  2
*U20
 10
0.0
 20
0.0
 30
0.0
1001
ACAD
1002
{
1000
R14_HATCH_DATA
1000
629
1011
1.0
1021
0.0
1031
0.0
1021
0.0
1031
0.0
1011
0.0
1021
0.0
1031
0.0
1021
1.0
1031
0.0
1011
0.0
1021
0.0
1031
0.0
1021
0.0
1031
1.0
1040
0.001526
1010
0.0
1020
0.0
1030
1.0
1000
SOLID
1070
     1
1070
     1
1071
        1
1071
        1
1071
        1
1070
     2
1040
59.452443999999993
1040
64.417393000000004
1040
0.375
1040
0.0
1040
6.2831849999999987
1070
     1
1071
        1
1005
62A
1070
     0
1070
     1
1071
        1
1040
28.700771
1040
67.356550999999996
1040
0.001526
1002
}
  0
CIRCLE
  5
F6E
  8
DIM
 10
59.452443999999993
 20
64.417393000000004
 30
0.001526
 40
0.375
  0
SOLID
  5
F6F
  8
DIM
 10
20.406618000000002
 20
65.448722000000004
 30
0.001526
 11
20.594615000000001
 21
65.633076000000003
 31
0.001526
 12
21.200771
 22
64.826906999999991
 32
0.001526
 13
21.200771
 23
64.826906999999991
 33
0.001526
  0
SOLID
  5
F70
  8
DIM
 10
68.062730000000002
 20
59.715173
 30
0.001526
 11
67.815942000000007
 21
59.623384999999999
 31
0.001526
 12
67.590737000000004
 22
60.606551000000003
 32
0.001526
 13
67.590737000000004
 23
60.606551000000003
 33
0.001526
  0
SOLID
  5
F71
  8
DIM
 10
68.062730000000002
 20
59.715173
 30
0.001526
 11
67.815942000000007
 21
59.623384999999999
 31
0.001526
 12
67.590737000000004
 22
60.606551000000003
 32
0.001526
 13
67.590737000000004
 23
60.606551000000003
 33
0.001526
  0
LINE
  5
F76
  8
GAIKEI
  6
CONTINUOUS
 10
90.271369000000007
 20
67.447856999999999
 30
0.001526
 11
90.271369000000007
 21
67.265245999999991
 31
0.001526
  0
LINE
  5
F77
  8
GAIKEI
  6
CONTINUOUS
 10
87.521368999999979
 20
67.447856999999999
 30
0.001526
 11
87.521368999999979
 21
67.265245999999991
 31
0.001526
  0
LINE
  5
F78
  8
GAIKEI
  6
CONTINUOUS
 10
87.521368999999979
 20
67.265245999999991
 30
0.001526
 11
86.521369000000007
 21
67.106550999999996
 31
0.001526
  0
LINE
  5
F79
  8
GAIKEI
  6
CONTINUOUS
 10
90.271369000000007
 20
67.265245999999991
 30
0.001526
 11
87.521368999999979
 21
67.265245999999991
 31
0.001526
  0
LINE
  5
F7A
  8
GAIKEI
  6
CONTINUOUS
 10
91.271369000000007
 20
67.106550999999996
 30
0.001526
 11
90.271369000000007
 21
67.265245999999991
 31
0.001526
  0
LINE
  5
F7B
  8
GAIKEI
  6
CONTINUOUS
 10
90.271369000000007
 20
67.447856999999999
 30
0.001526
 11
91.271369000000007
 21
67.606550999999996
 31
0.001526
  0
LINE
  5
F7C
  8
GAIKEI
  6
CONTINUOUS
 10
87.521368999999979
 20
67.447856999999999
 30
0.001526
 11
90.271369000000007
 21
67.447856999999999
 31
0.001526
  0
LINE
  5
F7D
  8
GAIKEI
  6
CONTINUOUS
 10
86.521369000000007
 20
67.606550999999996
 30
0.001526
 11
87.521368999999979
 21
67.447856999999999
 31
0.001526
  0
LINE
  5
F7E
  8
GAIKEI
  6
CONTINUOUS
 10
90.271369000000007
 20
60.947856999999992
 30
0.001526
 11
90.271369000000007
 21
60.765245999999991
 31
0.001526
  0
LINE
  5
F7F
  8
GAIKEI
  6
CONTINUOUS
 10
87.521368999999979
 20
60.947856999999992
 30
0.001526
 11
87.521368999999979
 21
60.765245999999991
 31
0.001526
  0
LINE
  5
F80
  8
GAIKEI
  6
CONTINUOUS
 10
87.521368999999979
 20
60.765245999999991
 30
0.001526
 11
86.521369000000007
 21
60.606551000000003
 31
0.001526
  0
LINE
  5
F81
  8
GAIKEI
  6
CONTINUOUS
 10
90.271369000000007
 20
60.765245999999991
 30
0.001526
 11
87.521368999999979
 21
60.765245999999991
 31
0.001526
  0
LINE
  5
F82
  8
GAIKEI
  6
CONTINUOUS
 10
91.271369000000007
 20
60.606551000000003
 30
0.001526
 11
90.271369000000007
 21
60.765245999999991
 31
0.001526
  0
LINE
  5
F83
  8
GAIKEI
  6
CONTINUOUS
 10
90.271369000000007
 20
60.947856999999992
 30
0.001526
 11
91.271369000000007
 21
61.106551000000003
 31
0.001526
  0
LINE
  5
F84
  8
GAIKEI
  6
CONTINUOUS
 10
87.521368999999979
 20
60.947856999999992
 30
0.001526
 11
90.271369000000007
 21
60.947856999999992
 31
0.001526
  0
LINE
  5
F85
  8
GAIKEI
  6
CONTINUOUS
 10
86.521369000000007
 20
61.106551000000003
 30
0.001526
 11
87.521368999999979
 21
60.947856999999992
 31
0.001526
  0
LINE
  5
F86
  8
GAIKEI
  6
CONTINUOUS
 10
82.446368999999976
 20
65.506551000000002
 30
0.001526
 11
82.696369000000004
 21
65.506551000000002
 31
0.001526
  0
LINE
  5
F87
  8
GAIKEI
  6
CONTINUOUS
 10
82.446368999999976
 20
69.206551000000005
 30
0.001526
 11
82.446368999999976
 21
65.506551000000002
 31
0.001526
  0
LINE
  5
F88
  8
GAIKEI
  6
CONTINUOUS
 10
82.696369000000004
 20
69.206551000000005
 30
0.001526
 11
82.446368999999976
 21
69.206551000000005
 31
0.001526
  0
LINE
  5
F89
  8
GAIKEI
  6
CONTINUOUS
 10
95.346368999999996
 20
65.506551000000002
 30
0.001526
 11
95.096368999999996
 21
65.506551000000002
 31
0.001526
  0
LINE
  5
F8A
  8
GAIKEI
  6
CONTINUOUS
 10
95.346368999999996
 20
69.206551000000005
 30
0.001526
 11
95.346368999999996
 21
65.506551000000002
 31
0.001526
  0
LINE
  5
F8B
  8
GAIKEI
  6
CONTINUOUS
 10
95.096368999999996
 20
69.206551000000005
 30
0.001526
 11
95.346368999999996
 21
69.206551000000005
 31
0.001526
  0
LINE
  5
F8C
  8
GAIKEI
  6
CONTINUOUS
 10
95.296368999999984
 20
59.656551
 30
0.001526
 11
95.096368999999996
 21
59.156551
 31
0.001526
  0
LINE
  5
F8D
  8
GAIKEI
  6
CONTINUOUS
 10
95.096368999999996
 20
60.156551
 30
0.001526
 11
95.296368999999984
 21
59.656551
 31
0.001526
  0
LINE
  5
F8E
  8
GAIKEI
  6
CONTINUOUS
 10
95.296368999999984
 20
75.056550999999999
 30
0.001526
 11
95.096368999999996
 21
74.556550999999999
 31
0.001526
  0
LINE
  5
F8F
  8
GAIKEI
  6
CONTINUOUS
 10
95.096368999999996
 20
75.556550999999999
 30
0.001526
 11
95.296368999999984
 21
75.056550999999999
 31
0.001526
  0
LINE
  5
F90
  8
GAIKEI
  6
CONTINUOUS
 10
82.496369000000001
 20
59.656551
 30
0.001526
 11
82.696369000000004
 21
59.156551
 31
0.001526
  0
LINE
  5
F91
  8
GAIKEI
  6
CONTINUOUS
 10
82.696369000000004
 20
60.156551
 30
0.001526
 11
82.496369000000001
 21
59.656551
 31
0.001526
  0
LINE
  5
F92
  8
GAIKEI
  6
CONTINUOUS
 10
82.496369000000001
 20
75.056550999999999
 30
0.001526
 11
82.696369000000004
 21
74.556550999999999
 31
0.001526
  0
LINE
  5
F93
  8
GAIKEI
  6
CONTINUOUS
 10
82.696369000000004
 20
75.556550999999999
 30
0.001526
 11
82.496369000000001
 21
75.056550999999999
 31
0.001526
  0
LINE
  5
F94
  8
GAIKEI
  6
CONTINUOUS
 10
31.700771
 20
56.35655100000001
 30
0.001526
 11
31.700771
 21
56.856551000000003
 31
0.001526
  0
LINE
  5
F95
  8
GAIKEI
  6
CONTINUOUS
 10
25.700771
 20
56.35655100000001
 30
0.001526
 11
31.700771
 21
56.35655100000001
 31
0.001526
  0
LINE
  5
F96
  8
GAIKEI
  6
CONTINUOUS
 10
25.700771
 20
56.856551000000003
 30
0.001526
 11
25.700771
 21
56.35655100000001
 31
0.001526
  0
LINE
  5
F97
  8
GAIKEI
  6
CONTINUOUS
 10
31.700771
 20
78.356550999999982
 30
0.001526
 11
31.700771
 21
77.856550999999982
 31
0.001526
  0
LINE
  5
F98
  8
GAIKEI
  6
CONTINUOUS
 10
25.700771
 20
78.356550999999982
 30
0.001526
 11
31.700771
 21
78.356550999999982
 31
0.001526
  0
LINE
  5
F99
  8
GAIKEI
  6
CONTINUOUS
 10
25.700771
 20
77.856550999999982
 30
0.001526
 11
25.700771
 21
78.356550999999982
 31
0.001526
  0
LINE
  5
F9A
  8
GAIKEI
  6
CONTINUOUS
 10
91.896369000000007
 20
77.856550999999982
 30
0.001526
 11
95.896369000000007
 21
77.856550999999982
 31
0.001526
  0
LINE
  5
F9B
  8
GAIKEI
  6
CONTINUOUS
 10
85.896369000000007
 20
56.856551000000003
 30
0.001526
 11
81.896368999999979
 21
56.856551000000003
 31
0.001526
  0
LINE
  5
F9C
  8
GAIKEI
  6
CONTINUOUS
 10
91.896369000000007
 20
56.35655100000001
 30
0.001526
 11
91.896369000000007
 21
57.856551000000003
 31
0.001526
  0
LINE
  5
F9D
  8
GAIKEI
  6
CONTINUOUS
 10
85.896369000000007
 20
56.35655100000001
 30
0.001526
 11
91.896369000000007
 21
56.35655100000001
 31
0.001526
  0
LINE
  5
F9E
  8
GAIKEI
  6
CONTINUOUS
 10
85.896369000000007
 20
57.856551000000003
 30
0.001526
 11
85.896369000000007
 21
56.35655100000001
 31
0.001526
  0
LINE
  5
F9F
  8
GAIKEI
  6
CONTINUOUS
 10
91.896369000000007
 20
78.356550999999982
 30
0.001526
 11
91.896369000000007
 21
76.856550999999982
 31
0.001526
  0
LINE
  5
FA0
  8
GAIKEI
  6
CONTINUOUS
 10
85.896369000000007
 20
78.356550999999982
 30
0.001526
 11
91.896369000000007
 21
78.356550999999982
 31
0.001526
  0
LINE
  5
FA1
  8
GAIKEI
  6
CONTINUOUS
 10
85.896369000000007
 20
76.856550999999982
 30
0.001526
 11
85.896369000000007
 21
78.356550999999982
 31
0.001526
  0
LINE
  5
FA2
  8
GAIKEI
  6
CONTINUOUS
 10
63.902843000000011
 20
68.606550999999996
 30
0.001526
 11
62.90284299999999
 21
68.606550999999996
 31
0.001526
  0
LINE
  5
FA3
  8
GAIKEI
  6
CONTINUOUS
 10
63.902843000000011
 20
67.606550999999996
 30
0.001526
 11
63.902843000000011
 21
68.606550999999996
 31
0.001526
  0
LINE
  5
FA4
  8
GAIKEI
  6
CONTINUOUS
 10
63.902843000000011
 20
66.106550999999996
 30
0.001526
 11
63.902843000000011
 21
67.106550999999996
 31
0.001526
  0
LINE
  5
FA5
  8
GAIKEI
  6
CONTINUOUS
 10
62.90284299999999
 20
66.106550999999996
 30
0.001526
 11
63.902843000000011
 21
66.106550999999996
 31
0.001526
  0
LINE
  5
FA6
  8
GAIKEI
  6
CONTINUOUS
 10
63.902843000000011
 20
60.606551000000003
 30
0.001526
 11
63.902843000000011
 21
59.656551
 31
0.001526
  0
LINE
  5
FA7
  8
GAIKEI
  6
CONTINUOUS
 10
63.902843000000011
 20
62.106551000000003
 30
0.001526
 11
63.902843000000011
 21
61.106551000000003
 31
0.001526
  0
LINE
  5
FA8
  8
GAIKEI
  6
CONTINUOUS
 10
62.90284299999999
 20
62.106551000000003
 30
0.001526
 11
63.902843000000011
 21
62.106551000000003
 31
0.001526
  0
LINE
  5
FA9
  8
GAIKEI
  6
CONTINUOUS
 10
63.402842999999997
 20
60.606551000000003
 30
0.001526
 11
62.90284299999999
 21
60.10655100000001
 31
0.001526
  0
LINE
  5
FAA
  8
GAIKEI
  6
CONTINUOUS
 10
62.90284299999999
 20
61.606551000000003
 30
0.001526
 11
63.402842999999997
 21
61.106551000000003
 31
0.001526
  0
LINE
  5
FAB
  8
GAIKEI
  6
CONTINUOUS
 10
63.402842999999997
 20
67.106550999999996
 30
0.001526
 11
62.90284299999999
 21
66.606550999999996
 31
0.001526
  0
LINE
  5
FAC
  8
GAIKEI
  6
CONTINUOUS
 10
62.90284299999999
 20
68.106550999999996
 30
0.001526
 11
63.402842999999997
 21
67.606550999999996
 31
0.001526
  0
LINE
  5
FAD
  8
CENTER
 10
88.896368999999964
 20
79.446963999999994
 30
0.001526
 11
88.896368999999964
 21
54.750554000000001
 31
0.001526
  0
LINE
  5
FAE
  8
CENTER
 10
45.12939699999999
 20
67.356550999999996
 30
0.001526
 11
72.324503000000007
 21
67.356550999999996
 31
0.001526
  0
LINE
  5
FAF
  8
GAIKEI
  6
CONTINUOUS
 10
59.127843000000013
 20
58.606551000000003
 30
0.001526
 11
57.826206999999982
 21
58.606551000000003
 31
0.001526
  0
LINE
  5
FB0
  8
GAIKEI
  6
CONTINUOUS
 10
57.082481999999992
 20
58.360947000000003
 30
0.001526
 11
55.342689
 21
57.525432999999992
 31
0.001526
  0
LINE
  5
FB1
  8
GAIKEI
  6
CONTINUOUS
 10
52.671293999999989
 20
57.188695000000003
 30
0.001526
 11
50.502842999999999
 21
57.621332999999993
 31
0.001526
  0
LINE
  5
FB2
  8
GAIKEI
  6
CONTINUOUS
 10
50.502842999999999
 20
57.621332999999993
 30
0.001526
 11
50.502842999999999
 21
56.856551000000003
 31
0.001526
  0
LINE
  5
FB3
  8
GAIKEI
  6
CONTINUOUS
 10
55.66736800000001
 20
56.849353999999998
 30
0.001526
 11
57.407161000000002
 21
57.684868000000002
 31
0.001526
  0
LINE
  5
FB4
  8
GAIKEI
  6
CONTINUOUS
 10
57.90284299999999
 20
57.856551000000003
 30
0.001526
 11
59.402842999999997
 21
57.856551000000003
 31
0.001526
  0
LINE
  5
FB5
  8
GAIKEI
  6
CONTINUOUS
 10
59.402842999999997
 20
57.856551000000003
 30
0.001526
 11
62.90284299999999
 21
57.856551000000003
 31
0.001526
  0
LINE
  5
FB6
  8
GAIKEI
  6
CONTINUOUS
 10
62.90284299999999
 20
57.856551000000003
 30
0.001526
 11
62.90284299999999
 21
67.356550999999996
 31
0.001526
  0
LINE
  5
FB7
  8
GAIKEI
  6
CONTINUOUS
 10
52.90284299999999
 20
59.156551
 30
0.001526
 11
51.902842999999997
 21
58.456550999999997
 31
0.001526
  0
LINE
  5
FB8
  8
GAIKEI
  6
CONTINUOUS
 10
51.902842999999997
 20
58.456550999999997
 30
0.001526
 11
49.90284299999999
 21
58.456550999999997
 31
0.001526
  0
LINE
  5
FB9
  8
GAIKEI
  6
CONTINUOUS
 10
59.127843000000013
 20
59.156551
 30
0.001526
 11
49.90284299999999
 21
59.156551
 31
0.001526
  0
LINE
  5
FBA
  8
GAIKEI
  6
CONTINUOUS
 10
49.90284299999999
 20
59.156551
 30
0.001526
 11
49.90284299999999
 21
56.856551000000003
 31
0.001526
  0
LINE
  5
FBB
  8
GAIKEI
  6
CONTINUOUS
 10
49.90284299999999
 20
56.856551000000003
 30
0.001526
 11
48.602843
 21
56.856551000000003
 31
0.001526
  0
LINE
  5
FBC
  8
GAIKEI
  6
CONTINUOUS
 10
48.602843
 20
56.856551000000003
 30
0.001526
 11
47.902842999999983
 21
57.556550999999999
 31
0.001526
  0
LINE
  5
FBD
  8
GAIKEI
  6
CONTINUOUS
 10
47.902842999999983
 20
57.556550999999999
 30
0.001526
 11
47.902842999999983
 21
67.356550999999996
 31
0.001526
  0
LINE
  5
FBE
  8
GAIKEI
  6
CONTINUOUS
 10
59.402842999999997
 20
59.156551
 30
0.001526
 11
59.127843000000013
 21
59.156551
 31
0.001526
  0
LINE
  5
FBF
  8
GAIKEI
  6
CONTINUOUS
 10
59.402842999999997
 20
57.856551000000003
 30
0.001526
 11
59.402842999999997
 21
59.156551
 31
0.001526
  0
LINE
  5
FC0
  8
GAIKEI
  6
CONTINUOUS
 10
49.90284299999999
 20
67.356550999999996
 30
0.001526
 11
49.90284299999999
 21
59.156551
 31
0.001526
  0
LINE
  5
FC1
  8
GAIKEI
  6
CONTINUOUS
 10
52.90284299999999
 20
60.156551
 30
0.001526
 11
49.90284299999999
 21
60.156551
 31
0.001526
  0
LINE
  5
FC2
  8
GAIKEI
  6
CONTINUOUS
 10
52.90284299999999
 20
59.156551
 30
0.001526
 11
52.90284299999999
 21
60.156551
 31
0.001526
  0
LINE
  5
FC3
  8
GAIKEI
  6
CONTINUOUS
 10
51.902842999999997
 20
59.656551
 30
0.001526
 11
52.90284299999999
 21
60.156551
 31
0.001526
  0
LINE
  5
FC4
  8
GAIKEI
  6
CONTINUOUS
 10
52.90284299999999
 20
59.156551
 30
0.001526
 11
51.902842999999997
 21
59.656551
 31
0.001526
  0
LINE
  5
FC5
  8
GAIKEI
  6
CONTINUOUS
 10
49.90284299999999
 20
59.656551
 30
0.001526
 11
51.902842999999997
 21
59.656551
 31
0.001526
  0
LINE
  5
FC6
  8
GAIKEI
  6
CONTINUOUS
 10
63.902843000000011
 20
59.656551
 30
0.001526
 11
62.90284299999999
 21
59.656551
 31
0.001526
  0
LINE
  5
FC7
  8
GAIKEI
  6
CONTINUOUS
 10
63.902843000000011
 20
57.856551000000003
 30
0.001526
 11
63.902843000000011
 21
59.656551
 31
0.001526
  0
LINE
  5
FC8
  8
GAIKEI
  6
CONTINUOUS
 10
62.90284299999999
 20
57.856551000000003
 30
0.001526
 11
63.902843000000011
 21
57.856551000000003
 31
0.001526
  0
LINE
  5
FC9
  8
GAIKEI
  6
CONTINUOUS
 10
51.202843000000001
 20
65.506551000000002
 30
0.001526
 11
49.90284299999999
 21
65.506551000000002
 31
0.001526
  0
LINE
  5
FCA
  8
GAIKEI
  6
CONTINUOUS
 10
51.902842999999997
 20
65.644097000000002
 30
0.001526
 11
51.902842999999997
 21
66.444136999999998
 31
0.001526
  0
LINE
  5
FCB
  8
GAIKEI
  6
CONTINUOUS
 10
93.896369000000007
 20
75.056550999999999
 30
0.001526
 11
93.896369000000007
 21
76.856550999999982
 31
0.001526
  0
LINE
  5
FCC
  8
GAIKEI
  6
CONTINUOUS
 10
93.896369000000007
 20
57.856551000000003
 30
0.001526
 11
93.896369000000007
 21
59.656551
 31
0.001526
  0
LINE
  5
FCD
  8
GAIKEI
  6
CONTINUOUS
 10
93.896369000000007
 20
59.656551
 30
0.001526
 11
94.896368999999979
 21
59.656551
 31
0.001526
  0
LINE
  5
FCE
  8
GAIKEI
  6
CONTINUOUS
 10
94.896368999999979
 20
59.656551
 30
0.001526
 11
94.896368999999979
 21
57.856551000000003
 31
0.001526
  0
LINE
  5
FCF
  8
GAIKEI
  6
CONTINUOUS
 10
94.896368999999979
 20
75.056550999999999
 30
0.001526
 11
93.896369000000007
 21
75.056550999999999
 31
0.001526
  0
LINE
  5
FD0
  8
GAIKEI
  6
CONTINUOUS
 10
94.896368999999979
 20
76.856550999999982
 30
0.001526
 11
94.896368999999979
 21
75.056550999999999
 31
0.001526
  0
LINE
  5
FD1
  8
GAIKEI
  6
CONTINUOUS
 10
83.896368999999964
 20
76.856550999999982
 30
0.001526
 11
83.896368999999964
 21
75.056550999999999
 31
0.001526
  0
LINE
  5
FD2
  8
GAIKEI
  6
CONTINUOUS
 10
83.896368999999964
 20
75.056550999999999
 30
0.001526
 11
82.896368999999964
 21
75.056550999999999
 31
0.001526
  0
LINE
  5
FD3
  8
GAIKEI
  6
CONTINUOUS
 10
82.896368999999964
 20
75.056550999999999
 30
0.001526
 11
82.896368999999964
 21
76.856550999999982
 31
0.001526
  0
LINE
  5
FD4
  8
GAIKEI
  6
CONTINUOUS
 10
83.896368999999964
 20
59.656551
 30
0.001526
 11
83.896368999999964
 21
57.856551000000003
 31
0.001526
  0
LINE
  5
FD5
  8
GAIKEI
  6
CONTINUOUS
 10
82.896368999999964
 20
59.656551
 30
0.001526
 11
83.896368999999964
 21
59.656551
 31
0.001526
  0
LINE
  5
FD6
  8
GAIKEI
  6
CONTINUOUS
 10
82.896368999999964
 20
57.856551000000003
 30
0.001526
 11
82.896368999999964
 21
59.656551
 31
0.001526
  0
LINE
  5
FD7
  8
GAIKEI
  6
CONTINUOUS
 10
23.950770999999989
 20
74.856550999999982
 30
0.001526
 11
28.700771
 21
74.856550999999982
 31
0.001526
  0
LINE
  5
FD8
  8
GAIKEI
  6
CONTINUOUS
 10
23.55077099999999
 20
67.356550999999996
 30
0.001526
 11
23.55077099999999
 21
74.456551000000005
 31
0.001526
  0
LINE
  5
FD9
  8
GAIKEI
  6
CONTINUOUS
 10
22.200771
 20
77.156550999999993
 30
0.001526
 11
28.700771
 21
77.156550999999993
 31
0.001526
  0
LINE
  5
FDA
  8
GAIKEI
  6
CONTINUOUS
 10
21.900770999999992
 20
67.356550999999996
 30
0.001526
 11
21.900770999999992
 21
76.856550999999982
 31
0.001526
  0
LINE
  5
FDB
  8
GAIKEI
  6
CONTINUOUS
 10
21.700770999999978
 20
77.856550999999982
 30
0.001526
 11
28.700771
 21
77.856550999999982
 31
0.001526
  0
LINE
  5
FDC
  8
GAIKEI
  6
CONTINUOUS
 10
21.200771
 20
67.356550999999996
 30
0.001526
 11
21.200771
 21
77.356550999999982
 31
0.001526
  0
LINE
  5
FDD
  8
GAIKEI
  6
CONTINUOUS
 10
28.700771
 20
74.856550999999982
 30
0.001526
 11
33.450771000000003
 21
74.856550999999982
 31
0.001526
  0
LINE
  5
FDE
  8
GAIKEI
  6
CONTINUOUS
 10
33.850771000000002
 20
74.456551000000005
 30
0.001526
 11
33.850771000000002
 21
67.356550999999996
 31
0.001526
  0
LINE
  5
FDF
  8
GAIKEI
  6
CONTINUOUS
 10
28.700771
 20
77.156550999999993
 30
0.001526
 11
35.20077100000001
 21
77.156550999999993
 31
0.001526
  0
LINE
  5
FE0
  8
GAIKEI
  6
CONTINUOUS
 10
35.500771
 20
76.856550999999982
 30
0.001526
 11
35.500771
 21
67.356550999999996
 31
0.001526
  0
LINE
  5
FE1
  8
GAIKEI
  6
CONTINUOUS
 10
28.700771
 20
77.856550999999982
 30
0.001526
 11
35.70077100000001
 21
77.856550999999982
 31
0.001526
  0
LINE
  5
FE2
  8
GAIKEI
  6
CONTINUOUS
 10
36.200771000000003
 20
77.356550999999982
 30
0.001526
 11
36.200771000000003
 21
67.356550999999996
 31
0.001526
  0
LINE
  5
FE3
  8
GAIKEI
  6
CONTINUOUS
 10
28.700771
 20
59.856551000000003
 30
0.001526
 11
23.950770999999989
 21
59.856551000000003
 31
0.001526
  0
LINE
  5
FE4
  8
GAIKEI
  6
CONTINUOUS
 10
23.55077099999999
 20
60.256551000000002
 30
0.001526
 11
23.55077099999999
 21
67.356550999999996
 31
0.001526
  0
LINE
  5
FE5
  8
GAIKEI
  6
CONTINUOUS
 10
28.700771
 20
57.556550999999999
 30
0.001526
 11
22.200771
 21
57.556550999999999
 31
0.001526
  0
LINE
  5
FE6
  8
GAIKEI
  6
CONTINUOUS
 10
21.900770999999992
 20
57.856551000000003
 30
0.001526
 11
21.900770999999992
 21
67.356550999999996
 31
0.001526
  0
LINE
  5
FE7
  8
GAIKEI
  6
CONTINUOUS
 10
28.700771
 20
56.856551000000003
 30
0.001526
 11
21.700770999999978
 21
56.856551000000003
 31
0.001526
  0
LINE
  5
FE8
  8
GAIKEI
  6
CONTINUOUS
 10
21.200771
 20
57.356551000000003
 30
0.001526
 11
21.200771
 21
67.356550999999996
 31
0.001526
  0
LINE
  5
FE9
  8
GAIKEI
  6
CONTINUOUS
 10
33.450771000000003
 20
59.856551000000003
 30
0.001526
 11
28.700771
 21
59.856551000000003
 31
0.001526
  0
LINE
  5
FEA
  8
GAIKEI
  6
CONTINUOUS
 10
33.850771000000002
 20
67.356550999999996
 30
0.001526
 11
33.850771000000002
 21
60.256551000000002
 31
0.001526
  0
LINE
  5
FEB
  8
GAIKEI
  6
CONTINUOUS
 10
35.20077100000001
 20
57.556550999999999
 30
0.001526
 11
28.700771
 21
57.556550999999999
 31
0.001526
  0
LINE
  5
FEC
  8
GAIKEI
  6
CONTINUOUS
 10
35.500771
 20
67.356550999999996
 30
0.001526
 11
35.500771
 21
57.856551000000003
 31
0.001526
  0
LINE
  5
FED
  8
GAIKEI
  6
CONTINUOUS
 10
35.70077100000001
 20
56.856551000000003
 30
0.001526
 11
28.700771
 21
56.856551000000003
 31
0.001526
  0
LINE
  5
FEE
  8
GAIKEI
  6
CONTINUOUS
 10
36.200771000000003
 20
67.356550999999996
 30
0.001526
 11
36.200771000000003
 21
57.356551000000003
 31
0.001526
  0
LINE
  5
FEF
  8
GAIKEI
  6
CONTINUOUS
 10
57.826206999999982
 20
76.106550999999982
 30
0.001526
 11
59.127843000000013
 21
76.106550999999982
 31
0.001526
  0
LINE
  5
FF0
  8
GAIKEI
  6
CONTINUOUS
 10
55.342689
 20
77.187669
 30
0.001526
 11
57.082481999999992
 21
76.352155000000025
 31
0.001526
  0
LINE
  5
FF1
  8
GAIKEI
  6
CONTINUOUS
 10
50.502842999999999
 20
77.091769999999983
 30
0.001526
 11
52.671293999999989
 21
77.52440799999998
 31
0.001526
  0
LINE
  5
FF2
  8
GAIKEI
  6
CONTINUOUS
 10
50.502842999999999
 20
77.856550999999982
 30
0.001526
 11
50.502842999999999
 21
77.091769999999983
 31
0.001526
  0
LINE
  5
FF3
  8
GAIKEI
  6
CONTINUOUS
 10
57.407161000000002
 20
77.028234999999981
 30
0.001526
 11
55.66736800000001
 21
77.863748999999999
 31
0.001526
  0
LINE
  5
FF4
  8
GAIKEI
  6
CONTINUOUS
 10
59.402842999999997
 20
76.856550999999982
 30
0.001526
 11
57.90284299999999
 21
76.856550999999982
 31
0.001526
  0
LINE
  5
FF5
  8
GAIKEI
  6
CONTINUOUS
 10
62.90284299999999
 20
76.856550999999982
 30
0.001526
 11
59.402842999999997
 21
76.856550999999982
 31
0.001526
  0
LINE
  5
FF6
  8
GAIKEI
  6
CONTINUOUS
 10
62.90284299999999
 20
67.356550999999996
 30
0.001526
 11
62.90284299999999
 21
76.856550999999982
 31
0.001526
  0
LINE
  5
FF7
  8
GAIKEI
  6
CONTINUOUS
 10
51.902842999999997
 20
76.256551000000002
 30
0.001526
 11
52.90284299999999
 21
75.556550999999999
 31
0.001526
  0
LINE
  5
FF8
  8
GAIKEI
  6
CONTINUOUS
 10
49.90284299999999
 20
76.256551000000002
 30
0.001526
 11
51.902842999999997
 21
76.256551000000002
 31
0.001526
  0
LINE
  5
FF9
  8
GAIKEI
  6
CONTINUOUS
 10
49.90284299999999
 20
75.556550999999999
 30
0.001526
 11
59.127843000000013
 21
75.556550999999999
 31
0.001526
  0
LINE
  5
FFA
  8
GAIKEI
  6
CONTINUOUS
 10
49.90284299999999
 20
77.856550999999982
 30
0.001526
 11
49.90284299999999
 21
75.556550999999999
 31
0.001526
  0
LINE
  5
FFB
  8
GAIKEI
  6
CONTINUOUS
 10
48.602843
 20
77.856550999999982
 30
0.001526
 11
49.90284299999999
 21
77.856550999999982
 31
0.001526
  0
LINE
  5
FFC
  8
GAIKEI
  6
CONTINUOUS
 10
47.902842999999983
 20
77.156550999999993
 30
0.001526
 11
48.602843
 21
77.856550999999982
 31
0.001526
  0
LINE
  5
FFD
  8
GAIKEI
  6
CONTINUOUS
 10
47.902842999999983
 20
67.356550999999996
 30
0.001526
 11
47.902842999999983
 21
77.156550999999993
 31
0.001526
  0
LINE
  5
FFE
  8
GAIKEI
  6
CONTINUOUS
 10
59.127843000000013
 20
75.556550999999999
 30
0.001526
 11
59.402842999999997
 21
75.556550999999999
 31
0.001526
  0
LINE
  5
FFF
  8
GAIKEI
  6
CONTINUOUS
 10
59.402842999999997
 20
75.556550999999999
 30
0.001526
 11
59.402842999999997
 21
76.856550999999982
 31
0.001526
  0
LINE
  5
1000
  8
GAIKEI
  6
CONTINUOUS
 10
49.90284299999999
 20
75.556550999999999
 30
0.001526
 11
49.90284299999999
 21
67.356550999999996
 31
0.001526
  0
LINE
  5
1001
  8
GAIKEI
  6
CONTINUOUS
 10
49.90284299999999
 20
74.556550999999999
 30
0.001526
 11
52.90284299999999
 21
74.556550999999999
 31
0.001526
  0
LINE
  5
1002
  8
GAIKEI
  6
CONTINUOUS
 10
52.90284299999999
 20
74.556550999999999
 30
0.001526
 11
52.90284299999999
 21
75.556550999999999
 31
0.001526
  0
LINE
  5
1003
  8
GAIKEI
  6
CONTINUOUS
 10
52.90284299999999
 20
74.556550999999999
 30
0.001526
 11
51.902842999999997
 21
75.056550999999999
 31
0.001526
  0
LINE
  5
1004
  8
GAIKEI
  6
CONTINUOUS
 10
51.902842999999997
 20
75.056550999999999
 30
0.001526
 11
52.90284299999999
 21
75.556550999999999
 31
0.001526
  0
LINE
  5
1005
  8
GAIKEI
  6
CONTINUOUS
 10
51.902842999999997
 20
75.056550999999999
 30
0.001526
 11
49.90284299999999
 21
75.056550999999999
 31
0.001526
  0
LINE
  5
1006
  8
GAIKEI
  6
CONTINUOUS
 10
62.90284299999999
 20
75.056550999999999
 30
0.001526
 11
63.902843000000011
 21
75.056550999999999
 31
0.001526
  0
LINE
  5
1007
  8
GAIKEI
  6
CONTINUOUS
 10
63.902843000000011
 20
75.056550999999999
 30
0.001526
 11
63.902843000000011
 21
76.856550999999982
 31
0.001526
  0
LINE
  5
1008
  8
GAIKEI
  6
CONTINUOUS
 10
63.902843000000011
 20
76.856550999999982
 30
0.001526
 11
62.90284299999999
 21
76.856550999999982
 31
0.001526
  0
LINE
  5
1009
  8
GAIKEI
  6
CONTINUOUS
 10
49.90284299999999
 20
69.206551000000005
 30
0.001526
 11
51.202843000000001
 21
69.206551000000005
 31
0.001526
  0
LINE
  5
100A
  8
GAIKEI
  6
CONTINUOUS
 10
51.902842999999997
 20
68.268966000000006
 30
0.001526
 11
51.902842999999997
 21
69.069006000000002
 31
0.001526
  0
LINE
  5
100B
  8
GAIKEI
  6
CONTINUOUS
 10
81.396368999999964
 20
57.356551000000003
 30
0.001526
 11
81.396368999999964
 21
77.356550999999982
 31
0.001526
  0
LINE
  5
100C
  8
GAIKEI
  6
CONTINUOUS
 10
81.896368999999979
 20
77.856550999999982
 30
0.001526
 11
85.896369000000007
 21
77.856550999999982
 31
0.001526
  0
LINE
  5
100D
  8
GAIKEI
  6
CONTINUOUS
 10
88.896368999999964
 20
76.856550999999982
 30
0.001526
 11
82.696369000000004
 21
76.856550999999982
 31
0.001526
  0
LINE
  5
100E
  8
GAIKEI
  6
CONTINUOUS
 10
82.696369000000004
 20
76.856550999999982
 30
0.001526
 11
82.696369000000004
 21
57.856551000000003
 31
0.001526
  0
LINE
  5
100F
  8
GAIKEI
  6
CONTINUOUS
 10
82.696369000000004
 20
57.856551000000003
 30
0.001526
 11
88.896368999999964
 21
57.856551000000003
 31
0.001526
  0
LINE
  5
1010
  8
GAIKEI
  6
CONTINUOUS
 10
86.521369000000007
 20
67.356550999999996
 30
0.001526
 11
86.521369000000007
 21
67.106550999999996
 31
0.001526
  0
LINE
  5
1011
  8
GAIKEI
  6
CONTINUOUS
 10
86.521369000000007
 20
67.106550999999996
 30
0.001526
 11
88.896368999999964
 21
67.106550999999996
 31
0.001526
  0
LINE
  5
1012
  8
GAIKEI
  6
CONTINUOUS
 10
85.896369000000007
 20
67.356550999999996
 30
0.001526
 11
85.896369000000007
 21
66.606550999999996
 31
0.001526
  0
LINE
  5
1013
  8
GAIKEI
  6
CONTINUOUS
 10
85.896369000000007
 20
66.606550999999996
 30
0.001526
 11
86.896368999999979
 21
66.606550999999996
 31
0.001526
  0
LINE
  5
1014
  8
GAIKEI
  6
CONTINUOUS
 10
86.896368999999979
 20
67.106550999999996
 30
0.001526
 11
86.896368999999979
 21
66.106550999999996
 31
0.001526
  0
LINE
  5
1015
  8
GAIKEI
  6
CONTINUOUS
 10
86.896368999999979
 20
66.106550999999996
 30
0.001526
 11
87.896368999999964
 21
66.106550999999996
 31
0.001526
  0
LINE
  5
1016
  8
GAIKEI
  6
CONTINUOUS
 10
87.896368999999964
 20
66.106550999999996
 30
0.001526
 11
87.896368999999964
 21
67.106550999999996
 31
0.001526
  0
LINE
  5
1017
  8
GAIKEI
  6
CONTINUOUS
 10
87.896368999999964
 20
66.606550999999996
 30
0.001526
 11
88.896368999999964
 21
66.606550999999996
 31
0.001526
  0
LINE
  5
1018
  8
GAIKEI
  6
CONTINUOUS
 10
85.896369000000007
 20
66.606550999999996
 30
0.001526
 11
86.521369000000007
 21
67.106550999999996
 31
0.001526
  0
LINE
  5
1019
  8
GAIKEI
  6
CONTINUOUS
 10
86.521369000000007
 20
67.606550999999996
 30
0.001526
 11
86.521369000000007
 21
67.356550999999996
 31
0.001526
  0
LINE
  5
101A
  8
GAIKEI
  6
CONTINUOUS
 10
88.896368999999964
 20
67.606550999999996
 30
0.001526
 11
86.521369000000007
 21
67.606550999999996
 31
0.001526
  0
LINE
  5
101B
  8
GAIKEI
  6
CONTINUOUS
 10
85.896369000000007
 20
68.106550999999996
 30
0.001526
 11
85.896369000000007
 21
67.356550999999996
 31
0.001526
  0
LINE
  5
101C
  8
GAIKEI
  6
CONTINUOUS
 10
86.896368999999979
 20
68.106550999999996
 30
0.001526
 11
85.896369000000007
 21
68.106550999999996
 31
0.001526
  0
LINE
  5
101D
  8
GAIKEI
  6
CONTINUOUS
 10
86.896368999999979
 20
68.606550999999996
 30
0.001526
 11
86.896368999999979
 21
67.606550999999996
 31
0.001526
  0
LINE
  5
101E
  8
GAIKEI
  6
CONTINUOUS
 10
87.896368999999964
 20
68.606550999999996
 30
0.001526
 11
86.896368999999979
 21
68.606550999999996
 31
0.001526
  0
LINE
  5
101F
  8
GAIKEI
  6
CONTINUOUS
 10
87.896368999999964
 20
67.606550999999996
 30
0.001526
 11
87.896368999999964
 21
68.606550999999996
 31
0.001526
  0
LINE
  5
1020
  8
GAIKEI
  6
CONTINUOUS
 10
88.896368999999964
 20
68.106550999999996
 30
0.001526
 11
87.896368999999964
 21
68.106550999999996
 31
0.001526
  0
LINE
  5
1021
  8
GAIKEI
  6
CONTINUOUS
 10
86.521369000000007
 20
67.606550999999996
 30
0.001526
 11
85.896369000000007
 21
68.106550999999996
 31
0.001526
  0
LINE
  5
1022
  8
GAIKEI
  6
CONTINUOUS
 10
86.521369000000007
 20
60.856551000000003
 30
0.001526
 11
86.521369000000007
 21
60.606551000000003
 31
0.001526
  0
LINE
  5
1023
  8
GAIKEI
  6
CONTINUOUS
 10
86.521369000000007
 20
60.606551000000003
 30
0.001526
 11
88.896368999999964
 21
60.606551000000003
 31
0.001526
  0
LINE
  5
1024
  8
GAIKEI
  6
CONTINUOUS
 10
85.896369000000007
 20
60.856551000000003
 30
0.001526
 11
85.896369000000007
 21
60.10655100000001
 31
0.001526
  0
LINE
  5
1025
  8
GAIKEI
  6
CONTINUOUS
 10
85.896369000000007
 20
60.10655100000001
 30
0.001526
 11
86.896368999999979
 21
60.10655100000001
 31
0.001526
  0
LINE
  5
1026
  8
GAIKEI
  6
CONTINUOUS
 10
86.896368999999979
 20
60.606551000000003
 30
0.001526
 11
86.896368999999979
 21
59.606551000000003
 31
0.001526
  0
LINE
  5
1027
  8
GAIKEI
  6
CONTINUOUS
 10
86.896368999999979
 20
59.606551000000003
 30
0.001526
 11
87.896368999999964
 21
59.606551000000003
 31
0.001526
  0
LINE
  5
1028
  8
GAIKEI
  6
CONTINUOUS
 10
87.896368999999964
 20
59.606551000000003
 30
0.001526
 11
87.896368999999964
 21
60.606551000000003
 31
0.001526
  0
LINE
  5
1029
  8
GAIKEI
  6
CONTINUOUS
 10
87.896368999999964
 20
60.10655100000001
 30
0.001526
 11
88.896368999999964
 21
60.10655100000001
 31
0.001526
  0
LINE
  5
102A
  8
GAIKEI
  6
CONTINUOUS
 10
85.896369000000007
 20
60.10655100000001
 30
0.001526
 11
86.521369000000007
 21
60.606551000000003
 31
0.001526
  0
LINE
  5
102B
  8
GAIKEI
  6
CONTINUOUS
 10
86.521369000000007
 20
61.106551000000003
 30
0.001526
 11
86.521369000000007
 21
60.856551000000003
 31
0.001526
  0
LINE
  5
102C
  8
GAIKEI
  6
CONTINUOUS
 10
88.896368999999964
 20
61.106551000000003
 30
0.001526
 11
86.521369000000007
 21
61.106551000000003
 31
0.001526
  0
LINE
  5
102D
  8
GAIKEI
  6
CONTINUOUS
 10
85.896369000000007
 20
61.606551000000003
 30
0.001526
 11
85.896369000000007
 21
60.856551000000003
 31
0.001526
  0
LINE
  5
102E
  8
GAIKEI
  6
CONTINUOUS
 10
86.896368999999979
 20
61.606551000000003
 30
0.001526
 11
85.896369000000007
 21
61.606551000000003
 31
0.001526
  0
LINE
  5
102F
  8
GAIKEI
  6
CONTINUOUS
 10
86.896368999999979
 20
62.106551000000003
 30
0.001526
 11
86.896368999999979
 21
61.106551000000003
 31
0.001526
  0
LINE
  5
1030
  8
GAIKEI
  6
CONTINUOUS
 10
87.896368999999964
 20
62.106551000000003
 30
0.001526
 11
86.896368999999979
 21
62.106551000000003
 31
0.001526
  0
LINE
  5
1031
  8
GAIKEI
  6
CONTINUOUS
 10
87.896368999999964
 20
61.106551000000003
 30
0.001526
 11
87.896368999999964
 21
62.106551000000003
 31
0.001526
  0
LINE
  5
1032
  8
GAIKEI
  6
CONTINUOUS
 10
88.896368999999964
 20
61.606551000000003
 30
0.001526
 11
87.896368999999964
 21
61.606551000000003
 31
0.001526
  0
LINE
  5
1033
  8
GAIKEI
  6
CONTINUOUS
 10
86.521369000000007
 20
61.106551000000003
 30
0.001526
 11
85.896369000000007
 21
61.606551000000003
 31
0.001526
  0
LINE
  5
1034
  8
GAIKEI
  6
CONTINUOUS
 10
95.896369000000007
 20
56.856551000000003
 30
0.001526
 11
91.896369000000007
 21
56.856551000000003
 31
0.001526
  0
LINE
  5
1035
  8
GAIKEI
  6
CONTINUOUS
 10
96.396369000000007
 20
77.356550999999982
 30
0.001526
 11
96.396369000000007
 21
57.356551000000003
 31
0.001526
  0
LINE
  5
1036
  8
GAIKEI
  6
CONTINUOUS
 10
95.096368999999996
 20
76.856550999999982
 30
0.001526
 11
88.896368999999964
 21
76.856550999999982
 31
0.001526
  0
LINE
  5
1037
  8
GAIKEI
  6
CONTINUOUS
 10
95.096368999999996
 20
57.856551000000003
 30
0.001526
 11
95.096368999999996
 21
76.856550999999982
 31
0.001526
  0
LINE
  5
1038
  8
GAIKEI
  6
CONTINUOUS
 10
88.896368999999964
 20
57.856551000000003
 30
0.001526
 11
95.096368999999996
 21
57.856551000000003
 31
0.001526
  0
LINE
  5
1039
  8
GAIKEI
  6
CONTINUOUS
 10
91.271369000000007
 20
67.106550999999996
 30
0.001526
 11
91.271369000000007
 21
67.356550999999996
 31
0.001526
  0
LINE
  5
103A
  8
GAIKEI
  6
CONTINUOUS
 10
88.896368999999964
 20
67.106550999999996
 30
0.001526
 11
91.271369000000007
 21
67.106550999999996
 31
0.001526
  0
LINE
  5
103B
  8
GAIKEI
  6
CONTINUOUS
 10
91.896369000000007
 20
66.606550999999996
 30
0.001526
 11
91.896369000000007
 21
67.356550999999996
 31
0.001526
  0
LINE
  5
103C
  8
GAIKEI
  6
CONTINUOUS
 10
90.896369000000007
 20
66.606550999999996
 30
0.001526
 11
91.896369000000007
 21
66.606550999999996
 31
0.001526
  0
LINE
  5
103D
  8
GAIKEI
  6
CONTINUOUS
 10
90.896369000000007
 20
66.106550999999996
 30
0.001526
 11
90.896369000000007
 21
67.106550999999996
 31
0.001526
  0
LINE
  5
103E
  8
GAIKEI
  6
CONTINUOUS
 10
89.896368999999979
 20
66.106550999999996
 30
0.001526
 11
90.896369000000007
 21
66.106550999999996
 31
0.001526
  0
LINE
  5
103F
  8
GAIKEI
  6
CONTINUOUS
 10
89.896368999999979
 20
67.106550999999996
 30
0.001526
 11
89.896368999999979
 21
66.106550999999996
 31
0.001526
  0
LINE
  5
1040
  8
GAIKEI
  6
CONTINUOUS
 10
88.896368999999964
 20
66.606550999999996
 30
0.001526
 11
89.896368999999979
 21
66.606550999999996
 31
0.001526
  0
LINE
  5
1041
  8
GAIKEI
  6
CONTINUOUS
 10
91.271369000000007
 20
67.106550999999996
 30
0.001526
 11
91.896369000000007
 21
66.606550999999996
 31
0.001526
  0
LINE
  5
1042
  8
GAIKEI
  6
CONTINUOUS
 10
91.271369000000007
 20
67.356550999999996
 30
0.001526
 11
91.271369000000007
 21
67.606550999999996
 31
0.001526
  0
LINE
  5
1043
  8
GAIKEI
  6
CONTINUOUS
 10
91.271369000000007
 20
67.606550999999996
 30
0.001526
 11
88.896368999999964
 21
67.606550999999996
 31
0.001526
  0
LINE
  5
1044
  8
GAIKEI
  6
CONTINUOUS
 10
91.896369000000007
 20
67.356550999999996
 30
0.001526
 11
91.896369000000007
 21
68.106550999999996
 31
0.001526
  0
LINE
  5
1045
  8
GAIKEI
  6
CONTINUOUS
 10
91.896369000000007
 20
68.106550999999996
 30
0.001526
 11
90.896369000000007
 21
68.106550999999996
 31
0.001526
  0
LINE
  5
1046
  8
GAIKEI
  6
CONTINUOUS
 10
90.896369000000007
 20
67.606550999999996
 30
0.001526
 11
90.896369000000007
 21
68.606550999999996
 31
0.001526
  0
LINE
  5
1047
  8
GAIKEI
  6
CONTINUOUS
 10
90.896369000000007
 20
68.606550999999996
 30
0.001526
 11
89.896368999999979
 21
68.606550999999996
 31
0.001526
  0
LINE
  5
1048
  8
GAIKEI
  6
CONTINUOUS
 10
89.896368999999979
 20
68.606550999999996
 30
0.001526
 11
89.896368999999979
 21
67.606550999999996
 31
0.001526
  0
LINE
  5
1049
  8
GAIKEI
  6
CONTINUOUS
 10
89.896368999999979
 20
68.106550999999996
 30
0.001526
 11
88.896368999999964
 21
68.106550999999996
 31
0.001526
  0
LINE
  5
104A
  8
GAIKEI
  6
CONTINUOUS
 10
91.896369000000007
 20
68.106550999999996
 30
0.001526
 11
91.271369000000007
 21
67.606550999999996
 31
0.001526
  0
LINE
  5
104B
  8
GAIKEI
  6
CONTINUOUS
 10
91.271369000000007
 20
60.606551000000003
 30
0.001526
 11
91.271369000000007
 21
60.856551000000003
 31
0.001526
  0
LINE
  5
104C
  8
GAIKEI
  6
CONTINUOUS
 10
88.896368999999964
 20
60.606551000000003
 30
0.001526
 11
91.271369000000007
 21
60.606551000000003
 31
0.001526
  0
LINE
  5
104D
  8
GAIKEI
  6
CONTINUOUS
 10
91.896369000000007
 20
60.10655100000001
 30
0.001526
 11
91.896369000000007
 21
60.856551000000003
 31
0.001526
  0
LINE
  5
104E
  8
GAIKEI
  6
CONTINUOUS
 10
90.896369000000007
 20
60.10655100000001
 30
0.001526
 11
91.896369000000007
 21
60.10655100000001
 31
0.001526
  0
LINE
  5
104F
  8
GAIKEI
  6
CONTINUOUS
 10
90.896369000000007
 20
59.606551000000003
 30
0.001526
 11
90.896369000000007
 21
60.606551000000003
 31
0.001526
  0
LINE
  5
1050
  8
GAIKEI
  6
CONTINUOUS
 10
89.896368999999979
 20
59.606551000000003
 30
0.001526
 11
90.896369000000007
 21
59.606551000000003
 31
0.001526
  0
LINE
  5
1051
  8
GAIKEI
  6
CONTINUOUS
 10
89.896368999999979
 20
60.606551000000003
 30
0.001526
 11
89.896368999999979
 21
59.606551000000003
 31
0.001526
  0
LINE
  5
1052
  8
GAIKEI
  6
CONTINUOUS
 10
88.896368999999964
 20
60.10655100000001
 30
0.001526
 11
89.896368999999979
 21
60.10655100000001
 31
0.001526
  0
LINE
  5
1053
  8
GAIKEI
  6
CONTINUOUS
 10
91.271369000000007
 20
60.606551000000003
 30
0.001526
 11
91.896369000000007
 21
60.10655100000001
 31
0.001526
  0
LINE
  5
1054
  8
GAIKEI
  6
CONTINUOUS
 10
91.271369000000007
 20
60.856551000000003
 30
0.001526
 11
91.271369000000007
 21
61.106551000000003
 31
0.001526
  0
LINE
  5
1055
  8
GAIKEI
  6
CONTINUOUS
 10
91.271369000000007
 20
61.106551000000003
 30
0.001526
 11
88.896368999999964
 21
61.106551000000003
 31
0.001526
  0
LINE
  5
1056
  8
GAIKEI
  6
CONTINUOUS
 10
91.896369000000007
 20
60.856551000000003
 30
0.001526
 11
91.896369000000007
 21
61.606551000000003
 31
0.001526
  0
LINE
  5
1057
  8
GAIKEI
  6
CONTINUOUS
 10
91.896369000000007
 20
61.606551000000003
 30
0.001526
 11
90.896369000000007
 21
61.606551000000003
 31
0.001526
  0
LINE
  5
1058
  8
GAIKEI
  6
CONTINUOUS
 10
90.896369000000007
 20
61.106551000000003
 30
0.001526
 11
90.896369000000007
 21
62.106551000000003
 31
0.001526
  0
LINE
  5
1059
  8
GAIKEI
  6
CONTINUOUS
 10
90.896369000000007
 20
62.106551000000003
 30
0.001526
 11
89.896368999999979
 21
62.106551000000003
 31
0.001526
  0
LINE
  5
105A
  8
GAIKEI
  6
CONTINUOUS
 10
89.896368999999979
 20
62.106551000000003
 30
0.001526
 11
89.896368999999979
 21
61.106551000000003
 31
0.001526
  0
LINE
  5
105B
  8
GAIKEI
  6
CONTINUOUS
 10
89.896368999999979
 20
61.606551000000003
 30
0.001526
 11
88.896368999999964
 21
61.606551000000003
 31
0.001526
  0
LINE
  5
105C
  8
GAIKEI
  6
CONTINUOUS
 10
91.896369000000007
 20
61.606551000000003
 30
0.001526
 11
91.271369000000007
 21
61.106551000000003
 31
0.001526
  0
LINE
  5
105D
  8
GAIKEI
  6
CONTINUOUS
 10
48.602843
 20
77.856550999999982
 30
0.001526
 11
48.602843
 21
56.856551000000003
 31
0.001526
  0
LINE
  5
105E
  8
CENTER
 10
61.950837
 20
60.856551000000003
 30
0.001526
 11
71.369354999999985
 21
60.856551000000003
 31
0.001526
  0
LINE
  5
105F
  8
CENTER
 10
45.756966999999989
 20
68.735488000000004
 30
0.001526
 11
52.72102799999999
 21
66.972134999999994
 31
0.001526
  0
LINE
  5
1060
  8
CENTER
 10
52.72102799999999
 20
67.740966999999998
 30
0.001526
 11
45.756966999999989
 21
65.977614000000003
 31
0.001526
  0
LINE
  5
1061
  8
GAIKEI
  6
CONTINUOUS
 10
53.910625000000003
 20
86.030535999999998
 30
0.001526
 11
53.910625000000003
 21
80.030535999999984
 31
0.001526
  0
LINE
  5
1062
  8
GAIKEI
  6
CONTINUOUS
 10
53.910625000000003
 20
86.030535999999998
 30
0.001526
 11
54.41062500000001
 21
85.405535999999998
 31
0.001526
  0
LINE
  5
1063
  8
GAIKEI
  6
CONTINUOUS
 10
54.41062500000001
 20
85.405535999999998
 30
0.001526
 11
54.41062500000001
 21
85.030535999999984
 31
0.001526
  0
LINE
  5
1064
  8
GAIKEI
  6
CONTINUOUS
 10
54.41062500000001
 20
80.655535999999984
 30
0.001526
 11
53.910625000000003
 21
80.030535999999984
 31
0.001526
  0
LINE
  5
1065
  8
GAIKEI
  6
CONTINUOUS
 10
53.910625000000003
 20
85.030535999999984
 30
0.001526
 11
54.910625000000003
 21
85.030535999999984
 31
0.001526
  0
LINE
  5
1066
  8
GAIKEI
  6
CONTINUOUS
 10
54.910625000000003
 20
85.030535999999984
 30
0.001526
 11
54.910625000000003
 21
84.030535999999984
 31
0.001526
  0
LINE
  5
1067
  8
GAIKEI
  6
CONTINUOUS
 10
54.910625000000003
 20
84.030535999999984
 30
0.001526
 11
53.910625000000003
 21
84.030535999999984
 31
0.001526
  0
LINE
  5
1068
  8
GAIKEI
  6
CONTINUOUS
 10
53.910625000000003
 20
82.030535999999998
 30
0.001526
 11
54.910625000000003
 21
82.030535999999998
 31
0.001526
  0
LINE
  5
1069
  8
GAIKEI
  6
CONTINUOUS
 10
54.910625000000003
 20
82.030535999999998
 30
0.001526
 11
54.910625000000003
 21
81.030535999999998
 31
0.001526
  0
LINE
  5
106A
  8
GAIKEI
  6
CONTINUOUS
 10
54.910625000000003
 20
81.030535999999998
 30
0.001526
 11
53.910625000000003
 21
81.030535999999998
 31
0.001526
  0
LINE
  5
106B
  8
GAIKEI
  6
CONTINUOUS
 10
54.41062500000001
 20
81.030535999999998
 30
0.001526
 11
54.41062500000001
 21
80.655535999999984
 31
0.001526
  0
LINE
  5
106C
  8
GAIKEI
  6
CONTINUOUS
 10
54.41062500000001
 20
84.030535999999984
 30
0.001526
 11
54.41062500000001
 21
82.030535999999998
 31
0.001526
  0
LINE
  5
106D
  8
GAIKEI
  6
CONTINUOUS
 10
53.910625000000003
 20
86.030535999999998
 30
0.001526
 11
53.910625000000003
 21
86.932344999999998
 31
0.001526
  0
LINE
  5
106E
  8
GAIKEI
  6
CONTINUOUS
 10
53.910625000000003
 20
80.030535999999984
 30
0.001526
 11
53.910625000000003
 21
79.547006999999979
 31
0.001526
  0
LINE
  5
106F
  8
GAIKEI
  6
CONTINUOUS
 10
61.310625000000002
 20
84.405535999999984
 30
0.001526
 11
61.310625000000002
 21
83.030535999999998
 31
0.001526
  0
LINE
  5
1070
  8
GAIKEI
  6
CONTINUOUS
 10
57.460625
 20
84.097072999999995
 30
0.001526
 11
58.408541000000007
 21
83.608243000000002
 31
0.001526
  0
LINE
  5
1071
  8
GAIKEI
  6
CONTINUOUS
 10
61.310625000000002
 20
84.405535999999984
 30
0.001526
 11
60.310625000000002
 21
85.405535999999998
 31
0.001526
  0
LINE
  5
1072
  8
GAIKEI
  6
CONTINUOUS
 10
60.410625000000003
 20
83.030535999999998
 30
0.001526
 11
60.410625000000003
 21
85.305536000000004
 31
0.001526
  0
LINE
  5
1073
  8
GAIKEI
  6
CONTINUOUS
 10
60.310625000000002
 20
80.655535999999984
 30
0.001526
 11
54.41062500000001
 21
80.655535999999984
 31
0.001526
  0
LINE
  5
1074
  8
GAIKEI
  6
CONTINUOUS
 10
61.310625000000002
 20
83.030535999999998
 30
0.001526
 11
61.310625000000002
 21
81.655535999999998
 31
0.001526
  0
LINE
  5
1075
  8
GAIKEI
  6
CONTINUOUS
 10
58.408541000000007
 20
82.452828999999994
 30
0.001526
 11
57.460625
 21
81.963999999999999
 31
0.001526
  0
LINE
  5
1076
  8
GAIKEI
  6
CONTINUOUS
 10
60.310625000000002
 20
80.655535999999984
 30
0.001526
 11
61.310625000000002
 21
81.655535999999998
 31
0.001526
  0
LINE
  5
1077
  8
GAIKEI
  6
CONTINUOUS
 10
60.410625000000003
 20
80.755535999999964
 30
0.001526
 11
60.410625000000003
 21
83.030535999999998
 31
0.001526
  0
LINE
  5
1078
  8
GAIKEI
  6
CONTINUOUS
 10
54.41062500000001
 20
85.405535999999998
 30
0.001526
 11
60.310625000000002
 21
85.405535999999998
 31
0.001526
  0
LINE
  5
1079
  8
CENTER
 10
61.923693000000007
 20
83.030535999999998
 30
0.001526
 11
53.014696999999998
 21
83.030535999999998
 31
0.001526
  0
LINE
  5
107A
  8
CENTER
 10
56.91062500000001
 20
84.726838000000001
 30
0.001526
 11
56.91062500000001
 21
81.306796999999989
 31
0.001526
  0
LINE
  5
107B
  8
CENTER
 10
58.110624999999999
 20
84.276461999999981
 30
0.001526
 11
58.110624999999999
 21
81.70087599999998
 31
0.001526
  0
LINE
  5
107C
  8
DIM
  6
CONTINUOUS
 10
42.832149999999999
 20
87.481757999999999
 30
0.001526
 11
48.761190999999997
 21
87.481757999999999
 31
0.001526
  0
LINE
  5
107D
  8
GAIKEI
  6
CONTINUOUS
 10
50.502842999999999
 20
77.856550999999982
 30
0.001526
 11
50.802842999999982
 21
77.712463999999983
 31
0.001526
  0
LINE
  5
107E
  8
GAIKEI
  6
CONTINUOUS
 10
50.802842999999982
 20
77.712463999999983
 30
0.001526
 11
50.802842999999982
 21
77.916405999999981
 31
0.001526
  0
LINE
  5
107F
  8
GAIKEI
  6
CONTINUOUS
 10
50.802842999999982
 20
77.916405999999981
 30
0.001526
 11
51.102843
 21
77.772317999999999
 31
0.001526
  0
LINE
  5
1080
  8
GAIKEI
  6
CONTINUOUS
 10
51.102843
 20
77.772317999999999
 30
0.001526
 11
51.102843
 21
77.976259999999982
 31
0.001526
  0
LINE
  5
1081
  8
GAIKEI
  6
CONTINUOUS
 10
51.402842999999997
 20
77.832172999999983
 30
0.001526
 11
51.102843
 21
77.976259999999982
 31
0.001526
  0
LINE
  5
1082
  8
GAIKEI
  6
CONTINUOUS
 10
51.402842999999997
 20
77.832172999999983
 30
0.001526
 11
51.402842999999997
 21
78.036114999999981
 31
0.001526
  0
LINE
  5
1083
  8
GAIKEI
  6
CONTINUOUS
 10
51.402842999999997
 20
78.036114999999981
 30
0.001526
 11
51.702843000000001
 21
77.892026999999999
 31
0.001526
  0
LINE
  5
1084
  8
GAIKEI
  6
CONTINUOUS
 10
51.702843000000001
 20
77.892026999999999
 30
0.001526
 11
51.702843000000001
 21
78.095968999999982
 31
0.001526
  0
LINE
  5
1085
  8
GAIKEI
  6
CONTINUOUS
 10
51.702843000000001
 20
78.095968999999982
 30
0.001526
 11
52.002842999999991
 21
77.951881999999998
 31
0.001526
  0
LINE
  5
1086
  8
GAIKEI
  6
CONTINUOUS
 10
52.002842999999991
 20
77.951881999999998
 30
0.001526
 11
52.002842999999991
 21
78.155822999999984
 31
0.001526
  0
LINE
  5
1087
  8
GAIKEI
  6
CONTINUOUS
 10
52.002842999999991
 20
78.155822999999984
 30
0.001526
 11
52.302843000000003
 21
78.011735999999999
 31
0.001526
  0
LINE
  5
1088
  8
GAIKEI
  6
CONTINUOUS
 10
52.302843000000003
 20
78.011735999999999
 30
0.001526
 11
52.302843000000003
 21
78.215677999999983
 31
0.001526
  0
LINE
  5
1089
  8
GAIKEI
  6
CONTINUOUS
 10
52.302843000000003
 20
78.215677999999983
 30
0.001526
 11
52.602843000000007
 21
78.071421000000001
 31
0.001526
  0
LINE
  5
108A
  8
GAIKEI
  6
CONTINUOUS
 10
52.602843000000007
 20
78.071421000000001
 30
0.001526
 11
52.602843000000007
 21
78.274884
 31
0.001526
  0
LINE
  5
108B
  8
GAIKEI
  6
CONTINUOUS
 10
52.602843000000007
 20
78.274884
 30
0.001526
 11
52.90284299999999
 21
78.118904000000001
 31
0.001526
  0
LINE
  5
108C
  8
GAIKEI
  6
CONTINUOUS
 10
52.90284299999999
 20
78.118904000000001
 30
0.001526
 11
52.90284299999999
 21
78.320420999999982
 31
0.001526
  0
LINE
  5
108D
  8
GAIKEI
  6
CONTINUOUS
 10
52.90284299999999
 20
78.320420999999982
 30
0.001526
 11
53.202843000000001
 21
78.147167000000024
 31
0.001526
  0
LINE
  5
108E
  8
GAIKEI
  6
CONTINUOUS
 10
53.202843000000001
 20
78.147167000000024
 30
0.001526
 11
53.202843000000001
 21
78.347543000000002
 31
0.001526
  0
LINE
  5
108F
  8
GAIKEI
  6
CONTINUOUS
 10
53.202843000000001
 20
78.347543000000002
 30
0.001526
 11
53.502843000000013
 21
78.156550999999979
 31
0.001526
  0
LINE
  5
1090
  8
GAIKEI
  6
CONTINUOUS
 10
53.502843000000013
 20
78.156550999999979
 30
0.001526
 11
53.502843000000013
 21
78.356550999999982
 31
0.001526
  0
LINE
  5
1091
  8
GAIKEI
  6
CONTINUOUS
 10
50.802842999999982
 20
57.000638999999993
 30
0.001526
 11
50.502842999999999
 21
56.856551000000003
 31
0.001526
  0
LINE
  5
1092
  8
GAIKEI
  6
CONTINUOUS
 10
50.802842999999982
 20
56.79669699999998
 30
0.001526
 11
50.802842999999982
 21
57.000638999999993
 31
0.001526
  0
LINE
  5
1093
  8
GAIKEI
  6
CONTINUOUS
 10
51.102843
 20
56.940783999999987
 30
0.001526
 11
50.802842999999982
 21
56.79669699999998
 31
0.001526
  0
LINE
  5
1094
  8
GAIKEI
  6
CONTINUOUS
 10
51.102843
 20
56.736842000000003
 30
0.001526
 11
51.102843
 21
56.940783999999987
 31
0.001526
  0
LINE
  5
1095
  8
GAIKEI
  6
CONTINUOUS
 10
51.102843
 20
56.736842000000003
 30
0.001526
 11
51.402842999999997
 21
56.880930000000021
 31
0.001526
  0
LINE
  5
1096
  8
GAIKEI
  6
CONTINUOUS
 10
51.402842999999997
 20
56.676988000000001
 30
0.001526
 11
51.402842999999997
 21
56.880930000000021
 31
0.001526
  0
LINE
  5
1097
  8
GAIKEI
  6
CONTINUOUS
 10
51.702843000000001
 20
56.821075
 30
0.001526
 11
51.402842999999997
 21
56.676988000000001
 31
0.001526
  0
LINE
  5
1098
  8
GAIKEI
  6
CONTINUOUS
 10
51.702843000000001
 20
56.617134
 30
0.001526
 11
51.702843000000001
 21
56.821075
 31
0.001526
  0
LINE
  5
1099
  8
GAIKEI
  6
CONTINUOUS
 10
52.002842999999991
 20
56.761220999999999
 30
0.001526
 11
51.702843000000001
 21
56.617134
 31
0.001526
  0
LINE
  5
109A
  8
GAIKEI
  6
CONTINUOUS
 10
52.002842999999991
 20
56.557279000000001
 30
0.001526
 11
52.002842999999991
 21
56.761220999999999
 31
0.001526
  0
LINE
  5
109B
  8
GAIKEI
  6
CONTINUOUS
 10
52.302843000000003
 20
56.701366999999998
 30
0.001526
 11
52.002842999999991
 21
56.557279000000001
 31
0.001526
  0
LINE
  5
109C
  8
GAIKEI
  6
CONTINUOUS
 10
52.302843000000003
 20
56.497425
 30
0.001526
 11
52.302843000000003
 21
56.701366999999998
 31
0.001526
  0
LINE
  5
109D
  8
GAIKEI
  6
CONTINUOUS
 10
52.602843000000007
 20
56.641681000000013
 30
0.001526
 11
52.302843000000003
 21
56.497425
 31
0.001526
  0
LINE
  5
109E
  8
GAIKEI
  6
CONTINUOUS
 10
52.602843000000007
 20
56.438218000000013
 30
0.001526
 11
52.602843000000007
 21
56.641681000000013
 31
0.001526
  0
LINE
  5
109F
  8
GAIKEI
  6
CONTINUOUS
 10
52.90284299999999
 20
56.594198999999989
 30
0.001526
 11
52.602843000000007
 21
56.438218000000013
 31
0.001526
  0
LINE
  5
10A0
  8
GAIKEI
  6
CONTINUOUS
 10
52.90284299999999
 20
56.392682000000001
 30
0.001526
 11
52.90284299999999
 21
56.594198999999989
 31
0.001526
  0
LINE
  5
10A1
  8
GAIKEI
  6
CONTINUOUS
 10
53.202843000000001
 20
56.565934999999989
 30
0.001526
 11
52.90284299999999
 21
56.392682000000001
 31
0.001526
  0
LINE
  5
10A2
  8
GAIKEI
  6
CONTINUOUS
 10
53.202843000000001
 20
56.365558999999998
 30
0.001526
 11
53.202843000000001
 21
56.565934999999989
 31
0.001526
  0
LINE
  5
10A3
  8
GAIKEI
  6
CONTINUOUS
 10
53.502843000000013
 20
56.556550999999999
 30
0.001526
 11
53.202843000000001
 21
56.365558999999998
 31
0.001526
  0
LINE
  5
10A4
  8
GAIKEI
  6
CONTINUOUS
 10
53.502843000000013
 20
56.35655100000001
 30
0.001526
 11
53.502843000000013
 21
56.556550999999999
 31
0.001526
  0
LINE
  5
10A5
  8
DIM
  6
CONTINUOUS
 10
41.005741999999991
 20
72.253970999999979
 30
0.001526
 11
43.971764999999991
 21
71.753777999999997
 31
0.001526
  0
LINE
  5
10A6
  8
DIM
  6
CONTINUOUS
 10
41.188150999999991
 20
70.955558999999994
 30
0.001526
 11
43.971764999999991
 21
71.753777999999997
 31
0.001526
  0
LINE
  5
10A7
  8
CENTER
 10
80.947823999999969
 20
67.356550999999996
 30
0.001526
 11
96.806369000000004
 21
67.356550999999996
 31
0.001526
  0
ARC
  5
10A8
  8
GAIKEI
  6
CONTINUOUS
 10
58.402842999999997
 20
55.611556999999998
 30
0.001526
 40
3.049999999999998
 50
100.7854549999998
 51
115.6520699999999
  0
ARC
  5
10A9
  8
GAIKEI
  6
CONTINUOUS
 10
53.502843000000013
 20
61.35655100000001
 30
0.001526
 40
4.25
 50
258.71680400000002
 51
295.65206999999998
  0
ARC
  5
10AA
  8
GAIKEI
  6
CONTINUOUS
 10
53.502843000000013
 20
61.35655100000001
 30
0.001526
 40
5.0
 50
270.0
 51
295.84193299999993
  0
ARC
  5
10AB
  8
GAIKEI
  6
CONTINUOUS
 10
58.402842999999997
 20
55.611556999999998
 30
0.001526
 40
2.299999999999998
 50
102.5558579999999
 51
115.6520699999999
  0
ARC
  5
10AC
  8
GAIKEI
  6
CONTINUOUS
 10
51.202843000000001
 20
67.356550999999996
 30
0.001526
 40
1.149999999999999
 50
180.0
 51
0.0
  0
ARC
  5
10AD
  8
GAIKEI
  6
CONTINUOUS
 10
51.202843000000001
 20
67.356550999999996
 30
0.001526
 40
1.8500000000000001
 50
270.0
 51
0.0
  0
ARC
  5
10AE
  8
GAIKEI
  6
CONTINUOUS
 10
58.402842999999997
 20
79.101545999999999
 30
0.001526
 40
3.049999999999998
 50
244.34792999999991
 51
259.21454499999987
  0
ARC
  5
10AF
  8
GAIKEI
  6
CONTINUOUS
 10
53.502843000000013
 20
73.356550999999982
 30
0.001526
 40
4.25
 50
64.347930000000005
 51
101.2831959999999
  0
ARC
  5
10B0
  8
GAIKEI
  6
CONTINUOUS
 10
58.402842999999997
 20
79.101545999999999
 30
0.001526
 40
2.299999999999998
 50
244.34792999999991
 51
257.44414199999977
  0
ARC
  5
10B1
  8
GAIKEI
  6
CONTINUOUS
 10
51.202843000000001
 20
67.356550999999996
 30
0.001526
 40
1.149999999999999
 50
0.0
 51
180.0
  0
ARC
  5
10B2
  8
GAIKEI
  6
CONTINUOUS
 10
51.202843000000001
 20
67.356550999999996
 30
0.001526
 40
1.8500000000000001
 50
0.0
 51
90.0
  0
ARC
  5
10B3
  8
GAIKEI
  6
CONTINUOUS
 10
81.896368999999979
 20
57.356551000000003
 30
0.001526
 40
0.5
 50
180.0
 51
270.0
  0
ARC
  5
10B4
  8
GAIKEI
  6
CONTINUOUS
 10
81.896368999999979
 20
77.356550999999982
 30
0.001526
 40
0.5
 50
90.0
 51
180.0
  0
ARC
  5
10B5
  8
GAIKEI
  6
CONTINUOUS
 10
95.896369000000007
 20
57.356551000000003
 30
0.001526
 40
0.5
 50
270.0
 51
0.0
  0
ARC
  5
10B6
  8
GAIKEI
  6
CONTINUOUS
 10
95.896369000000007
 20
77.356550999999982
 30
0.001526
 40
0.5
 50
0.0
 51
90.0
  0
ARC
  5
10B7
  8
GAIKEI
  6
CONTINUOUS
 10
56.91062500000001
 20
83.030535999999998
 30
0.001526
 40
1.1999999999999991
 50
62.720387000000009
 51
180.0
  0
ARC
  5
10B8
  8
GAIKEI
  6
CONTINUOUS
 10
58.110624999999999
 20
83.030535999999998
 30
0.001526
 40
0.65
 50
0.0
 51
62.720387000000009
  0
ARC
  5
10B9
  8
GAIKEI
  6
CONTINUOUS
 10
56.91062500000001
 20
83.030535999999998
 30
0.001526
 40
1.1999999999999991
 50
180.0
 51
297.27961299999993
  0
ARC
  5
10BA
  8
GAIKEI
  6
CONTINUOUS
 10
58.110624999999999
 20
83.030535999999998
 30
0.001526
 40
0.65
 50
297.27961299999993
 51
0.0
  0
ARC
  5
10BB
  8
GAIKEI
  6
CONTINUOUS
 10
53.502843000000013
 20
73.356550999999982
 30
0.001526
 40
5.0
 50
64.158067000000003
 51
90.0
  0
CIRCLE
  5
10BC
  8
GAIKEI
  6
CONTINUOUS
 10
91.896369000000007
 20
63.85655100000001
 30
0.001526
 40
0.5
  0
CIRCLE
  5
10BD
  8
GAIKEI
  6
CONTINUOUS
 10
88.896368999999964
 20
59.356551000000003
 30
0.001526
 40
0.5
  0
CIRCLE
  5
10BE
  8
GAIKEI
  6
CONTINUOUS
 10
85.896369000000007
 20
63.85655100000001
 30
0.001526
 40
0.5
  0
CIRCLE
  5
10BF
  8
GAIKEI
  6
CONTINUOUS
 10
88.896368999999964
 20
75.356550999999982
 30
0.001526
 40
0.5
  0
CIRCLE
  5
10C2
  8
GAIKEI
  6
CONTINUOUS
 10
91.896369000000007
 20
70.856550999999996
 30
0.001526
 40
0.5
  0
CIRCLE
  5
10C3
  8
GAIKEI
  6
CONTINUOUS
 10
85.896369000000007
 20
70.856550999999996
 30
0.001526
 40
0.5
  0
ARC
  5
10C4
  8
GAIKEI
  6
CONTINUOUS
 10
59.127843000000013
 20
58.881551000000002
 30
0.001526
 40
0.275
 50
0.0
 51
90.0
  0
ARC
  5
10C5
  8
GAIKEI
  6
CONTINUOUS
 10
59.127843000000013
 20
58.881551000000002
 30
0.001526
 40
0.275
 50
270.0
 51
0.0
  0
ARC
  5
10C6
  8
GAIKEI
  6
CONTINUOUS
 10
21.700770999999978
 20
77.356550999999982
 30
0.001526
 40
0.5
 50
90.0
 51
180.0
  0
ARC
  5
10C7
  8
GAIKEI
  6
CONTINUOUS
 10
22.200771
 20
76.856550999999982
 30
0.001526
 40
0.3
 50
90.0
 51
180.0
  0
ARC
  5
10C8
  8
GAIKEI
  6
CONTINUOUS
 10
23.950770999999989
 20
74.456551000000005
 30
0.001526
 40
0.4
 50
90.0
 51
180.0
  0
ARC
  5
10C9
  8
GAIKEI
  6
CONTINUOUS
 10
35.70077100000001
 20
77.356550999999982
 30
0.001526
 40
0.5
 50
0.0
 51
90.0
  0
ARC
  5
10CA
  8
GAIKEI
  6
CONTINUOUS
 10
35.20077100000001
 20
76.856550999999982
 30
0.001526
 40
0.3
 50
0.0
 51
90.0
  0
ARC
  5
10CB
  8
GAIKEI
  6
CONTINUOUS
 10
33.450771000000003
 20
74.456551000000005
 30
0.001526
 40
0.4
 50
0.0
 51
90.0
  0
ARC
  5
10CC
  8
GAIKEI
  6
CONTINUOUS
 10
21.700770999999978
 20
57.356551000000003
 30
0.001526
 40
0.5
 50
180.0
 51
270.0
  0
ARC
  5
10CD
  8
GAIKEI
  6
CONTINUOUS
 10
22.200771
 20
57.856551000000003
 30
0.001526
 40
0.3
 50
180.0
 51
270.0
  0
ARC
  5
10CE
  8
GAIKEI
  6
CONTINUOUS
 10
23.950770999999989
 20
60.256551000000002
 30
0.001526
 40
0.4
 50
180.0
 51
270.0
  0
ARC
  5
10CF
  8
GAIKEI
  6
CONTINUOUS
 10
35.70077100000001
 20
57.356551000000003
 30
0.001526
 40
0.5
 50
270.0
 51
0.0
  0
ARC
  5
10D0
  8
GAIKEI
  6
CONTINUOUS
 10
35.20077100000001
 20
57.856551000000003
 30
0.001526
 40
0.3
 50
270.0
 51
0.0
  0
ARC
  5
10D1
  8
GAIKEI
  6
CONTINUOUS
 10
33.450771000000003
 20
60.256551000000002
 30
0.001526
 40
0.4
 50
270.0
 51
0.0
  0
ARC
  5
10D2
  8
GAIKEI
  6
CONTINUOUS
 10
59.127843000000013
 20
75.831551000000005
 30
0.001526
 40
0.275
 50
270.0
 51
0.0
  0
ARC
  5
10D3
  8
GAIKEI
  6
CONTINUOUS
 10
59.127843000000013
 20
75.831551000000005
 30
0.001526
 40
0.275
 50
0.0
 51
90.0
  0
TEXT
  5
10D4
  8
DIM
 10
14.203431
 20
66.778266000000002
 30
0.001526
 40
1.25
  1
Œ`–¼•\Ž¦‘¤
 41
0.7120000000000001
  0
TEXT
  5
10D5
  8
GAIKEI
 10
93.129634999999993
 20
60.044040000000003
 30
0.001526
 40
1.5
  1
3
 41
0.72
  0
TEXT
  5
10D6
  8
GAIKEI
 10
93.093535000000003
 20
66.830844999999997
 30
0.001526
 40
1.5
  1
2
 41
0.72
  0
TEXT
  5
10D7
  8
DIM
 10
43.082749999999997
 20
87.880751999999987
 30
0.001526
 40
1.5
  1
’[ŽqŒ`ó
 41
0.7120000000000001
  0
TEXT
  5
10DA
  8
DIM
 10
70.602914999999996
 20
52.761240999999998
 30
0.001526
 40
1.25
  1
ƒ^ƒu’[Žq”187
 41
0.7120000000000001
  0
TEXT
  5
10DB
  8
DIM
 10
71.598035999999979
 20
50.407888
 30
0.001526
 40
1.25
  1
ƒnƒ“ƒ_’[Žq‹¤—p
 41
0.7120000000000001
  0
TEXT
  5
10DC
  8
DIM
 10
50.000409999999988
 20
51.788122999999999
 30
0.001526
 40
1.25
  1
UL,CSA,VDE•\Ž¦‘¤
 41
0.7120000000000001
  0
DIMENSION
  5
10DF
  8
DIM
  2
*D2
 10
11.763387
 20
77.856550999999982
 30
0.001526
 11
10.638387
 21
67.356550999999996
 31
0.001526
 12
28.700771
 22
67.356550999999996
 32
0.001526
 70
     1
  1
<>
 13
21.700770999999978
 23
56.856551000000003
 33
0.001526
 14
21.700770999999978
 24
77.856550999999982
 34
0.001526
  0
DIMENSION
  5
10E0
  8
DIM
  2
*D3
 10
86.521369000000007
 20
51.182512000000003
 30
0.001526
 11
88.896368999999964
 21
52.307512000000003
 31
0.001526
 12
28.700771
 22
67.356550999999996
 32
0.001526
 70
     1
  1
<>
 13
91.271369000000007
 23
60.606551000000003
 33
0.001526
 14
86.521369000000007
 24
60.606551000000003
 34
0.001526
  0
DIMENSION
  5
10E1
  8
DIM
  2
*D4
 10
13.808534
 20
74.856550999999982
 30
0.001526
 11
12.683534
 21
67.356550999999996
 31
0.001526
 12
28.700771
 22
67.356550999999996
 32
0.001526
 70
     1
  1
<>
 13
23.950770999999989
 23
59.856551000000003
 33
0.001526
 14
23.950770999999989
 24
74.856550999999982
 34
0.001526
  0
DIMENSION
  5
10E2
  8
DIM
  2
*D5
 10
49.90284299999999
 20
53.445950000000003
 30
0.001526
 11
51.651591000000003
 21
54.410108999999999
 31
0.001526
 70
   128
  1
<>
 13
47.902842999999983
 23
57.556550999999999
 33
0.001526
 14
49.90284299999999
 24
56.856551000000003
 34
0.001526
  0
DIMENSION
  5
10E3
  8
DIM
  2
*D6
 10
63.902843000000011
 20
49.163732000000003
 30
0.001526
 11
56.902842999999997
 21
50.288732000000003
 31
0.001526
 12
28.700771
 22
67.356550999999996
 32
0.001526
  1
<>
 13
49.90284299999999
 23
56.856551000000003
 33
0.001526
 14
63.902843000000011
 24
57.856551000000003
 34
0.001526
  0
DIMENSION
  5
10E4
  8
DIM
  2
*D7
 10
79.893631999999982
 20
57.856551000000003
 30
0.001526
 11
78.768631999999982
 21
67.356550999999996
 31
0.001526
 12
28.700771
 22
67.356550999999996
 32
0.001526
 70
     1
  1
<>
 13
63.902843000000011
 23
76.856550999999982
 33
0.001526
 14
63.902843000000011
 24
57.856551000000003
 34
0.001526
  0
DIMENSION
  5
10E5
  8
DIM
  2
*D8
 10
77.534216999999998
 20
67.356550999999996
 30
0.001526
 11
76.409216999999984
 21
64.106550999999996
 31
0.001526
  1
<>
 13
71.369354999999985
 23
60.856551000000003
 33
0.001526
 14
72.324503000000007
 24
67.356550999999996
 34
0.001526
 50
90.0
  0
DIMENSION
  5
10E6
  8
DIM
  2
*D9
 10
82.496369000000001
 20
82.296004999999994
 30
0.001526
 11
88.896368999999964
 21
83.421004999999994
 31
0.001526
 12
28.700771
 22
67.356550999999996
 32
0.001526
  1
<>
 13
95.296368999999984
 23
75.056550999999999
 33
0.001526
 14
82.496369000000001
 24
75.056550999999999
 34
0.001526
  0
DIMENSION
  5
10E7
  8
DIM
  2
*D10
 10
82.696369000000004
 20
49.076053000000002
 30
0.001526
 11
88.896368999999964
 21
50.201053000000002
 31
0.001526
 12
28.700771
 22
67.356550999999996
 32
0.001526
  1
<>
 13
95.096368999999996
 23
57.856551000000003
 33
0.001526
 14
82.696369000000004
 24
57.856551000000003
 34
0.001526
  0
DIMENSION
  5
10E8
  8
DIM
  2
*D11
 10
75.159177
 20
61.106551000000003
 30
0.001526
 11
74.034177
 21
64.881551000000002
 31
0.001526
 70
     1
  1
t<>
 13
69.402843000000004
 23
60.606551000000003
 33
0.001526
 14
69.402843000000004
 24
61.106551000000003
 34
0.001526
1001
ACAD
1000
DSTYLE
1002
{
1070
   287
1070
     3
1002
}
  0
DIMENSION
  5
10E9
  8
DIM
  2
*D12
 10
23.600770999999991
 20
83.162479000000005
 30
0.001526
 11
28.700771
 21
84.287479000000005
 31
0.001526
 12
28.700771
 22
67.356550999999996
 32
0.001526
 70
     1
  1
<>
 13
33.80077099999999
 23
74.131851999999981
 33
0.001526
 14
23.600770999999991
 24
74.131851999999981
 34
0.001526
  0
DIMENSION
  5
10EA
  8
DIM
  2
*D13
 10
41.259376000000003
 20
76.168038999999979
 30
0.001526
 11
38.715513000000001
 21
70.37005000000002
 31
0.001526
 70
     1
  1
12.3
 13
45.003365000000002
 23
62.459155000000003
 33
0.001526
 14
47.902842999999983
 24
74.578649999999982
 34
0.001526
  0
DIMENSION
  5
10EB
  8
DIM
  2
*D14
 10
44.762661000000001
 20
49.183494000000003
 30
0.001526
 11
47.332751999999999
 21
50.30849400000001
 31
0.001526
  1
5.3
 13
49.90284299999999
 23
56.856551000000003
 33
0.001526
 14
44.762661000000001
 24
63.018307
 34
0.001526
  0
DIMENSION
  5
10EC
  8
DIM
  2
*D15
 10
70.30284300000001
 20
49.136622000000003
 30
0.001526
 11
67.102843000000007
 21
50.261621999999988
 31
0.001526
 12
28.700771
 22
67.356550999999996
 32
0.001526
  1
<>
 13
63.902843000000011
 23
57.856551000000003
 33
0.001526
 14
70.30284300000001
 24
60.765245999999991
 34
0.001526
  0
DIMENSION
  5
10ED
  8
DIM
  2
*D16
 10
21.200771
 20
85.491302000000005
 30
0.001526
 11
28.700771
 21
86.616302000000005
 31
0.001526
 12
28.700771
 22
67.356550999999996
 32
0.001526
 70
     1
  1
<>
 13
36.200771000000003
 23
77.356550999999982
 33
0.001526
 14
21.200771
 24
77.356550999999982
 34
0.001526
  0
TEXT
  5
10EE
  8
FILE
 10
5.0
 20
93.0
 30
0.0
 40
2.0
  1
JW-S11RKK,JW-S11RRK,JW-S11RWK,JW-S11RRW,JW-S11RWW
 41
0.72
  0
LINE
  5
10EF
  8
GAIKEI
  6
CONTINUOUS
 10
64.702843000000001
 20
67.106550999999996
 30
0.001526
 11
64.702843000000001
 21
67.606550999999996
 31
0.001526
  0
LINE
  5
10F0
  8
GAIKEI
  6
CONTINUOUS
 10
62.90284299999999
 20
67.106550999999996
 30
0.001526
 11
69.402843000000004
 21
67.106550999999996
 31
0.001526
  0
LINE
  5
10F1
  8
GAIKEI
  6
CONTINUOUS
 10
69.402843000000004
 20
67.606550999999996
 30
0.001526
 11
62.90284299999999
 21
67.606550999999996
 31
0.001526
  0
LINE
  5
10F2
  8
GAIKEI
  6
CONTINUOUS
 10
70.30284300000001
 20
67.265245999999991
 30
0.001526
 11
70.30284300000001
 21
67.447856999999999
 31
0.001526
  0
LINE
  5
10F3
  8
GAIKEI
  6
CONTINUOUS
 10
70.30284300000001
 20
67.447856999999999
 30
0.001526
 11
69.402843000000004
 21
67.606550999999996
 31
0.001526
  0
LINE
  5
10F4
  8
GAIKEI
  6
CONTINUOUS
 10
69.402843000000004
 20
67.106550999999996
 30
0.001526
 11
70.30284300000001
 21
67.265245999999991
 31
0.001526
  0
LINE
  5
10F5
  8
GAIKEI
  6
CONTINUOUS
 10
70.30284300000001
 20
60.765245999999991
 30
0.001526
 11
70.30284300000001
 21
60.947856999999992
 31
0.001526
  0
LINE
  5
10F6
  8
GAIKEI
  6
CONTINUOUS
 10
69.402843000000004
 20
60.606551000000003
 30
0.001526
 11
70.30284300000001
 21
60.765245999999991
 31
0.001526
  0
LINE
  5
10F7
  8
GAIKEI
  6
CONTINUOUS
 10
69.30284300000001
 20
60.606551000000003
 30
0.001526
 11
69.30284300000001
 21
61.106551000000003
 31
0.001526
  0
LINE
  5
10F8
  8
GAIKEI
  6
CONTINUOUS
 10
62.90284299999999
 20
60.606551000000003
 30
0.001526
 11
69.402843000000004
 21
60.606551000000003
 31
0.001526
  0
LINE
  5
10F9
  8
GAIKEI
  6
CONTINUOUS
 10
69.402843000000004
 20
61.106551000000003
 30
0.001526
 11
62.90284299999999
 21
61.106551000000003
 31
0.001526
  0
LINE
  5
10FA
  8
GAIKEI
  6
CONTINUOUS
 10
70.30284300000001
 20
60.947856999999992
 30
0.001526
 11
69.402843000000004
 21
61.106551000000003
 31
0.001526
  0
LINE
  5
110D
  8
DIM
 10
45.272263999999993
 20
68.858218999999991
 30
0.001526
 11
42.145445999999993
 21
69.649952999999996
 31
0.001526
  0
LINE
  5
110E
  8
DIM
 10
45.272263999999993
 20
65.854883999999998
 30
0.001526
 11
42.145445999999993
 21
65.063148999999996
 31
0.001526
  0
ARC
  5
110F
  8
DIM
 10
51.202843000000001
 20
67.356550999999996
 30
0.001526
 40
8.8432399999999998
 50
172.2734199999999
 51
187.7265799999999
  0
SOLID
  5
1110
  8
DIM
 10
42.276268999999992
 20
68.577197999999996
 30
0.001526
 11
42.603512999999992
 21
68.513779
 31
0.001526
 12
42.630148999999989
 22
69.527222999999992
 32
0.001526
 13
42.630148999999989
 23
69.527222999999992
 33
0.001526
  0
SOLID
  5
1111
  8
DIM
 10
42.603512999999992
 20
66.199324000000004
 30
0.001526
 11
42.276268999999992
 21
66.135904000000011
 31
0.001526
 12
42.630148999999989
 22
65.185880000000012
 32
0.001526
 13
42.630148999999989
 23
65.185880000000012
 33
0.001526
  0
TEXT
  5
1112
  8
DIM
 10
41.859603
 20
66.996550999999997
 30
0.001526
 40
1.25
  1
ƒ¿
 50
90.0
 41
0.72
  0
ENDSEC
  0
EOF
